<?xml version="1.0" encoding="utf-8"?>
<!-- Generator: Adobe Illustrator 19.2.0, SVG Export Plug-In . SVG Version: 6.00 Build 0)  -->
<svg version="1.1" id="Layer_1" xmlns="http://www.w3.org/2000/svg" xmlns:xlink="http://www.w3.org/1999/xlink" x="0px" y="0px"
	 viewBox="0 0 379.3 239.8" style="enable-background:new 0 0 379.3 239.8;" xml:space="preserve">
<style type="text/css">
	.st0{fill:#FFFFFF;}
</style>
<g>
	<g>
		<path class="st0" d="M31.8,207.8v-16.3h11v42.2h-11v-17.3H16v17.3H5v-42.2h11v16.3H31.8z"/>
		<path class="st0" d="M61.8,226.4l-2.9,7.3H47.3l16.2-42.2h12l15.9,42.2H79.7l-2.7-7.3H61.8z M69.5,204.6h-0.1L64.9,218H74
			L69.5,204.6z"/>
		<path class="st0" d="M131.1,233.8h-13.7L107,217.5h-0.1v16.2h-11v-42.2h16.4c8.3,0,14.7,4,14.7,13c0,5.8-3.2,10.9-9.2,11.9
			L131.1,233.8z M106.9,210.5h1.1c3.6,0,7.6-0.7,7.6-5.3c0-4.6-4-5.3-7.6-5.3h-1.1V210.5z"/>
		<path class="st0" d="M151.4,217.2l10.2-25.6h11.9l-18,42.2h-8.5l-17.8-42.2h11.9L151.4,217.2z"/>
		<path class="st0" d="M188.8,200.8v7.1h12.4v9.3h-12.4v7.3h13v9.3h-24v-42.2h24v9.3H188.8z"/>
		<path class="st0" d="M232.8,202.4c-2-1.7-4.6-2.8-7.3-2.8c-2,0-4.7,1.2-4.7,3.5c0,2.5,3,3.4,4.9,4l2.8,0.8
			c5.9,1.7,10.4,4.7,10.4,11.5c0,4.2-1,8.5-4.4,11.4c-3.3,2.8-7.7,4-12,4c-5.3,0-10.5-1.8-14.8-4.8l4.7-8.8c2.7,2.4,6,4.4,9.7,4.4
			c2.6,0,5.3-1.3,5.3-4.3c0-3.1-4.3-4.1-6.7-4.8c-6.9-2-11.4-3.8-11.4-11.9c0-8.6,6.1-14.2,14.6-14.2c4.3,0,9.5,1.3,13.2,3.5
			L232.8,202.4z"/>
		<path class="st0" d="M262.1,233.8h-11v-32.9h-9.1v-9.3h29.1v9.3h-9.1V233.8z"/>
		<path class="st0" d="M287.2,200.8v7.1h12.4v9.3h-12.4v7.3h13v9.3h-24v-42.2h24v9.3H287.2z"/>
		<path class="st0" d="M343.4,233.8h-13.7l-10.4-16.2h-0.1v16.2h-11v-42.2h16.4c8.3,0,14.7,4,14.7,13c0,5.8-3.2,10.9-9.2,11.9
			L343.4,233.8z M319.3,210.5h1.1c3.6,0,7.6-0.7,7.6-5.3c0-4.6-4-5.3-7.6-5.3h-1.1V210.5z"/>
		<path class="st0" d="M370.2,202.4c-2-1.7-4.6-2.8-7.3-2.8c-2,0-4.7,1.2-4.7,3.5c0,2.5,3,3.4,4.9,4l2.8,0.8
			c5.9,1.7,10.4,4.7,10.4,11.5c0,4.2-1,8.5-4.4,11.4c-3.3,2.8-7.7,4-12,4c-5.3,0-10.5-1.8-14.8-4.8l4.7-8.8c2.7,2.4,6,4.4,9.7,4.4
			c2.6,0,5.3-1.3,5.3-4.3c0-3.1-4.3-4.1-6.7-4.8c-6.9-2-11.4-3.8-11.4-11.9c0-8.6,6.1-14.2,14.6-14.2c4.3,0,9.5,1.3,13.2,3.5
			L370.2,202.4z"/>
	</g>
</g>
<path class="st0" d="M173.7,76.7c4.7-1.5,9.6-2.4,14.6-2.6c-1.1-2.6-3-5-6.3-6c-8.4-2.7-12.7-4.1-12.7-4.1S169,72.3,173.7,76.7z"/>
<path class="st0" d="M177.2,64.8c8.4,2.7,12.7,4.1,12.7,4.1s0.6-12-7.8-14.7c-8.4-2.7-12.7-4.1-12.7-4.1S168.8,62.1,177.2,64.8z"/>
<path class="st0" d="M177.2,50.8c8.4,2.7,12.7,4.1,12.7,4.1s0.6-12-7.8-14.7c-8.4-2.7-12.7-4.1-12.7-4.1S168.8,48.1,177.2,50.8z"/>
<path class="st0" d="M193,74c5,0.2,9.9,1.1,14.6,2.6c4.8-4.3,4.3-12.7,4.3-12.7s-4.2,1.4-12.7,4.1C196,69.1,194.1,71.5,193,74z"/>
<path class="st0" d="M204.1,64.8c8.4-2.7,7.8-14.7,7.8-14.7s-4.2,1.4-12.7,4.1c-8.4,2.7-7.8,14.7-7.8,14.7S195.6,67.5,204.1,64.8z"
	/>
<path class="st0" d="M204.1,50.8c8.4-2.7,7.9-14.7,7.9-14.7s-4.2,1.4-12.7,4.1c-8.4,2.7-7.8,14.7-7.8,14.7S195.6,53.5,204.1,50.8z"
	/>
<path class="st0" d="M177.2,36.9c8.4,2.7,12.7,4.1,12.7,4.1s0.6-12-7.8-14.7c-5.5-1.8-9.2-2.9-11.1-3.6V5.8h-1.6v16.3
	C169.4,22.2,168.8,34.2,177.2,36.9z"/>
<path class="st0" d="M204.1,36.9c8.4-2.7,7.8-14.7,7.8-14.7V5.8h-1.6v16.8c-1.9,0.6-5.6,1.8-11.1,3.6c-8.4,2.7-7.8,14.7-7.8,14.7
	S195.6,39.6,204.1,36.9z"/>
<path class="st0" d="M219.9,78.3c5.2,1.7,7.9,2.5,7.9,2.5s0.4-7.5-4.9-9.2c-5.2-1.7-7.9-2.5-7.9-2.5S214.6,76.6,219.9,78.3z"/>
<path class="st0" d="M222.9,63c-5.2-1.7-7.9-2.5-7.9-2.5s-0.4,7.5,4.9,9.2c5.2,1.7,7.9,2.5,7.9,2.5S228.1,64.7,222.9,63z"/>
<path class="st0" d="M215,77.8c0,0,0,0.8,0.1,2c4.6,2.3,8.8,5.3,12.6,8.8c-0.1-2-0.7-7-4.9-8.3C217.6,78.6,215,77.8,215,77.8z"/>
<path class="st0" d="M219.9,61c5.2,1.7,7.9,2.5,7.9,2.5s0.4-7.5-4.9-9.2c-5.2-1.7-7.9-2.5-7.9-2.5S214.6,59.3,219.9,61z"/>
<path class="st0" d="M236.6,78.3c5.2-1.7,4.9-9.2,4.9-9.2s-2.6,0.8-7.9,2.5c-5.2,1.7-4.9,9.2-4.9,9.2S231.3,80,236.6,78.3z"/>
<path class="st0" d="M236.6,69.6c5.2-1.7,4.9-9.2,4.9-9.2s-2.6,0.8-7.9,2.5c-5.2,1.7-4.9,9.2-4.9,9.2S231.3,71.3,236.6,69.6z"/>
<path class="st0" d="M236.6,87c5.2-1.7,4.9-9.2,4.9-9.2s-2.6,0.8-7.9,2.5c-5.2,1.7-4.9,9.2-4.9,9.2S231.3,88.6,236.6,87z"/>
<path class="st0" d="M236.6,61c5.2-1.7,4.9-9.2,4.9-9.2s-2.6,0.8-7.9,2.5c-5.2,1.7-4.9,9.2-4.9,9.2S231.3,62.7,236.6,61z"/>
<path class="st0" d="M236.6,52.3c3.9-1.2,4.7-5.7,4.8-7.9h0v-0.6c0-0.4,0-0.7,0-0.7V33h-1v10.5c-1.2,0.4-3.5,1.1-6.9,2.2
	c-5.2,1.7-4.9,9.2-4.9,9.2S231.3,54,236.6,52.3z"/>
<path class="st0" d="M215,44.4L215,44.4c0.2,2.2,1,6.7,4.9,7.9c5.2,1.7,7.9,2.5,7.9,2.5s0.4-7.5-4.9-9.2c-3.4-1.1-5.7-1.8-6.9-2.2
	V33h-1v10.2c0,0,0,0.2,0,0.7V44.4z"/>
<path class="st0" d="M161.4,78.3c5.2-1.7,4.9-9.2,4.9-9.2s-2.6,0.8-7.9,2.5c-5.2,1.7-4.9,9.2-4.9,9.2S156.2,80,161.4,78.3z"/>
<path class="st0" d="M161.4,69.6c5.2-1.7,4.9-9.2,4.9-9.2s-2.6,0.8-7.9,2.5c-5.2,1.7-4.9,9.2-4.9,9.2S156.2,71.3,161.4,69.6z"/>
<path class="st0" d="M153.6,88.6c3.8-3.6,8.1-6.5,12.6-8.8c0.1-1.2,0.1-2,0.1-2s-2.6,0.8-7.9,2.5C154.3,81.7,153.7,86.6,153.6,88.6z
	"/>
<path class="st0" d="M161.4,61c5.2-1.7,4.9-9.2,4.9-9.2s-2.6,0.8-7.9,2.5c-5.2,1.7-4.9,9.2-4.9,9.2S156.2,62.7,161.4,61z"/>
<path class="st0" d="M161.4,52.3c3.9-1.2,4.7-5.7,4.8-7.9h0v-0.6c0-0.4,0-0.7,0-0.7V33h-1v10.5c-1.2,0.4-3.5,1.1-6.9,2.2
	c-5.2,1.7-4.9,9.2-4.9,9.2S156.2,54,161.4,52.3z"/>
<path class="st0" d="M147.7,71.7c-5.2-1.7-7.9-2.5-7.9-2.5s-0.4,7.5,4.9,9.2c5.2,1.7,7.9,2.5,7.9,2.5S152.9,73.3,147.7,71.7z"/>
<path class="st0" d="M144.7,69.6c5.2,1.7,7.9,2.5,7.9,2.5s0.4-7.5-4.9-9.2c-5.2-1.7-7.9-2.5-7.9-2.5S139.5,68,144.7,69.6z"/>
<path class="st0" d="M144.7,87c5.2,1.7,7.9,2.5,7.9,2.5s0.4-7.5-4.9-9.2c-5.2-1.7-7.9-2.5-7.9-2.5S139.5,85.3,144.7,87z"/>
<path class="st0" d="M139.8,86.5c0,0-0.4,7.5,4.9,9.2c0.7,0.2,1.4,0.5,2,0.7c1.3-1.7,2.6-3.4,4.1-4.9c-0.7-1-1.7-1.9-3.1-2.4
	C142.5,87.3,139.8,86.5,139.8,86.5z"/>
<path class="st0" d="M144.7,61c5.2,1.7,7.9,2.5,7.9,2.5s0.4-7.5-4.9-9.2c-5.2-1.7-7.9-2.5-7.9-2.5S139.5,59.3,144.7,61z"/>
<path class="st0" d="M139.8,44.4L139.8,44.4c0.2,2.2,1,6.7,4.9,7.9c5.2,1.7,7.9,2.5,7.9,2.5s0.4-7.5-4.9-9.2
	c-3.4-1.1-5.7-1.8-6.9-2.2V33h-1l0,10.2l0,0c0,0,0,0.3,0,0.7V44.4z"/>
<path class="st0" d="M190.6,88.3c-22.1,0-40,17.9-40,40c0,22.1,17.9,40,40,40c22.1,0,40-17.9,40-40
	C230.7,106.3,212.7,88.3,190.6,88.3z M226.4,128.1l-16.2,1.9l-3.6-1.5c0-0.1,0-0.1,0-0.2c0-1.3-0.2-2.6-0.5-3.9l3.1-2.3l16.2-1.9
	C226.1,122.8,226.4,125.4,226.4,128.1z M224.9,118.1l-12.1,1.4l9.8-7.3C223.5,114.1,224.3,116,224.9,118.1z M221.5,110.3l-13.1,9.7
	l-3.9,0.5c-0.7-1.2-1.5-2.3-2.4-3.3l1.5-3.6l13-9.7C218.6,105.8,220.2,108,221.5,110.3z M196.1,121.5l-0.2-2l2.1-1.6
	c0.4,0.3,0.8,0.6,1.1,0.9l-1,2.4L196.1,121.5z M197,123.6l-0.3,0.7l-0.4-0.2l0-0.4L197,123.6z M190.1,132.4l-2-0.8l-1.3-1.7
	l-0.2-2.1l0.8-2l1.7-1.3l2.1-0.3l2,0.8l1.3,1.7l0.2,2.1l-0.8,2l-1.7,1.3L190.1,132.4z M191.9,135.6l-0.3,0.7l-0.4-0.6l0.3-0.3
	L191.9,135.6z M189.4,137l1.2,1.6l-1.1,2.4c-0.5,0-1-0.1-1.4-0.2l-0.3-2.6L189.4,137z M187.5,135.7l-0.1-0.7l0.4,0l0.3,0.3
	L187.5,135.7z M185.6,119.4l-0.3-2.6c0.4-0.2,0.9-0.4,1.3-0.5l1.6,2.1l-0.8,1.8L185.6,119.4z M186.5,122.2l-0.2,0.4l-0.4,0l-0.1-0.7
	L186.5,122.2z M183.5,120.9l0.2,2l-2,0.2l-1.6-2.1c0.3-0.4,0.6-0.8,0.9-1.1L183.5,120.9z M182.9,118.2c0.1-0.1,0.2-0.2,0.3-0.3
	l0,0.4L182.9,118.2z M183.3,125.2l0.7-0.1l0,0.4l-0.3,0.3L183.3,125.2z M183.6,129.2l-0.2,0.4l-0.7-0.3l0.6-0.4L183.6,129.2z
	 M180.8,125.5l1.2,1.6l-1.6,1.2l-2.4-1.1c0-0.5,0.1-1,0.2-1.4L180.8,125.5z M180.7,130.8l1.8,0.8l-0.8,1.8l-2.6,0.3
	c-0.2-0.4-0.4-0.9-0.5-1.3L180.7,130.8z M183.2,135.4l2-0.2l0.2,2l-2.1,1.6c-0.4-0.3-0.8-0.6-1.1-0.9L183.2,135.4z M184.2,133.1
	l0.3-0.7l0.4,0.2l0,0.4L184.2,133.1z M189.4,121.1l0.3-0.7l0.4,0.6l-0.3,0.3L189.4,121.1z M191.9,119.7l-1.2-1.6l1-2.4
	c0.5,0,1,0.1,1.4,0.2l0.3,2.6L191.9,119.7z M193.8,121l0.1,0.7l-0.4,0l-0.3-0.3L193.8,121z M193.9,136.5l1.8,0.8l0.3,2.6
	c-0.4,0.2-0.9,0.4-1.3,0.5l-1.6-2.1L193.9,136.5z M194.7,134.4l0.2-0.4l0.4-0.1l0.1,0.7L194.7,134.4z M199.6,123.3l2.6-0.3
	c0.2,0.4,0.4,0.9,0.5,1.3l-2.1,1.6l-1.8-0.8L199.6,123.3z M198.6,127.4l-0.6,0.4l-0.3-0.3l0.2-0.4L198.6,127.4z M197.5,130.9
	l0.4,0.6l-0.7,0.1l0-0.4L197.5,130.9z M199.5,133.5l1.6,2.1c-0.3,0.4-0.6,0.8-0.9,1.1l-2.4-1l-0.2-2L199.5,133.5z M200.5,131.2
	l-1.2-1.6l1.6-1.2l2.4,1.1c0,0.5-0.1,1-0.2,1.4L200.5,131.2z M215.2,102.3l-9.8,7.3l4.8-11.2C212,99.6,213.7,100.9,215.2,102.3z
	 M208.4,97.2l-6.4,15l-3.1,2.3c-1.2-0.7-2.4-1.2-3.7-1.6l-0.5-3.9l6.4-15C203.6,94.9,206.1,95.9,208.4,97.2z M198.9,93.5l-4.8,11.2
	l-1.4-12.1C194.8,92.7,196.9,93,198.9,93.5z M190.4,92.5l1.9,16.2l-1.5,3.6c-0.1,0-0.1,0-0.2,0c-1.3,0-2.6,0.2-3.9,0.5l-2.3-3.1
	l-1.9-16.2C185.1,92.9,187.7,92.5,190.4,92.5z M180.4,94l1.4,12.1l-7.3-9.8C176.4,95.4,178.3,94.6,180.4,94z M172.6,97.4l9.7,13.1
	l0.5,3.9c-1.2,0.7-2.3,1.5-3.3,2.4l-3.6-1.5l-9.7-13C168.1,100.4,170.3,98.8,172.6,97.4z M164.6,103.8l7.3,9.8l-11.2-4.8
	C161.9,107,163.2,105.3,164.6,103.8z M159.5,110.6l15,6.4l2.3,3.1c-0.7,1.2-1.2,2.4-1.6,3.7l-3.9,0.5l-15-6.4
	C157.2,115.4,158.2,112.9,159.5,110.6z M155.8,120.1l11.2,4.8l-12.1,1.4C155,124.2,155.3,122.1,155.8,120.1z M154.8,128.5l16.2-1.9
	l3.6,1.5c0,0.1,0,0.1,0,0.2c0,1.3,0.2,2.6,0.5,3.9l-3.1,2.3l-16.2,1.9C155.2,133.9,154.9,131.3,154.8,128.5z M156.3,138.6l12.1-1.4
	l-9.8,7.3C157.7,142.6,157,140.6,156.3,138.6z M159.7,146.4l13.1-9.7l3.9-0.5c0.7,1.2,1.5,2.3,2.4,3.3l-1.5,3.6l-13,9.7
	C162.7,150.9,161.1,148.7,159.7,146.4z M166.1,154.4l9.8-7.3l-4.8,11.2C169.3,157.1,167.6,155.8,166.1,154.4z M172.9,159.4l6.4-15
	l3.1-2.3c1.2,0.7,2.4,1.2,3.7,1.6l0.5,3.9l-6.4,15C177.7,161.8,175.2,160.7,172.9,159.4z M182.4,163.2l4.8-11.2l1.4,12.1
	C186.5,164,184.4,163.7,182.4,163.2z M190.8,164.1l-1.9-16.2l1.5-3.6c0.1,0,0.1,0,0.2,0c1.3,0,2.6-0.2,3.9-0.5l2.3,3.1l1.9,16.2
	C196.2,163.8,193.6,164.1,190.8,164.1z M200.9,162.6l-1.4-12.1l7.3,9.8C204.9,161.2,202.9,162,200.9,162.6z M208.7,159.2l-9.7-13.1
	l-0.5-3.9c1.2-0.7,2.3-1.5,3.3-2.4l3.6,1.5l9.7,13C213.2,156.3,211,157.9,208.7,159.2z M216.7,152.9l-7.3-9.8l11.2,4.8
	C219.4,149.7,218.1,151.4,216.7,152.9z M221.7,146.1l-15-6.4l-2.3-3.1c0.7-1.2,1.2-2.4,1.6-3.7l3.9-0.5l15,6.4
	C224.1,141.3,223.1,143.8,221.7,146.1z M225.5,136.6l-11.2-4.8l12.1-1.4C226.3,132.5,226,134.6,225.5,136.6z"/>
<path class="st0" d="M190.6,75.9c-29,0-52.4,23.5-52.4,52.4c0,29,23.5,52.4,52.4,52.4s52.4-23.5,52.4-52.4
	C243.1,99.4,219.6,75.9,190.6,75.9z M190.6,170.5c-23.2,0-42.1-18.9-42.1-42.1c0-23.2,18.9-42.1,42.1-42.1
	c23.2,0,42.1,18.9,42.1,42.1C232.8,151.6,213.9,170.5,190.6,170.5z"/>
<path class="st0" d="M230.5,91.3c1.5,1.6,2.8,3.2,4.1,4.9c0.6-0.2,1.3-0.4,2-0.7c5.2-1.7,4.9-9.2,4.9-9.2s-2.6,0.8-7.9,2.5
	C232.2,89.4,231.2,90.3,230.5,91.3z"/>
<g>
	<path class="st0" d="M62.5,125h1.7l1.4,3.6l1.5-3.6h1.8l1,6.8h-1.8l-0.5-3.9h0l-1.6,3.9h-0.7l-1.6-3.9h0l-0.6,3.9h-1.8L62.5,125z"
		/>
	<path class="st0" d="M73.8,131.8H72V125h1.8V131.8z"/>
	<path class="st0" d="M76.4,125h2.5c1.9,0,3.4,1.5,3.4,3.4c0,1.9-1.6,3.4-3.4,3.4h-2.5V125z M78.1,130.3h0.4c1.1,0,2-0.6,2-1.9
		c0-1.2-0.8-1.9-1.9-1.9h-0.4V130.3z"/>
	<path class="st0" d="M87.1,128.2v1.4h-2.6v-1.4H87.1z"/>
	<path class="st0" d="M91.9,129.4L91.9,129.4l1.4-4.4h1.4l1.3,4.4h0l1.3-4.4h1.8l-2.2,6.8h-1.8l-1.2-3.9h0l-1.3,3.9h-1.8l-2-6.8h1.8
		L91.9,129.4z"/>
	<path class="st0" d="M102.5,126.5v1.1h2v1.5h-2v1.2h2.1v1.5h-3.9V125h3.9v1.5H102.5z"/>
	<path class="st0" d="M110.8,126.7c-0.3-0.3-0.7-0.4-1.2-0.4c-0.3,0-0.8,0.2-0.8,0.6c0,0.4,0.5,0.5,0.8,0.6l0.5,0.1
		c0.9,0.3,1.7,0.8,1.7,1.9c0,0.7-0.2,1.4-0.7,1.8c-0.5,0.5-1.2,0.6-1.9,0.6c-0.9,0-1.7-0.3-2.4-0.8l0.8-1.4c0.4,0.4,1,0.7,1.6,0.7
		c0.4,0,0.9-0.2,0.9-0.7c0-0.5-0.7-0.7-1.1-0.8c-1.1-0.3-1.8-0.6-1.8-1.9c0-1.4,1-2.3,2.3-2.3c0.7,0,1.5,0.2,2.1,0.6L110.8,126.7z"
		/>
	<path class="st0" d="M116.8,131.8H115v-5.3h-1.5V125h4.7v1.5h-1.5V131.8z"/>
</g>
<g>
	<path class="st0" d="M264.8,126.5v1.1h2v1.5h-2v1.2h2.1v1.5H263V125h3.9v1.5H264.8z"/>
	<path class="st0" d="M273.2,126.7c-0.3-0.3-0.7-0.4-1.2-0.4c-0.3,0-0.8,0.2-0.8,0.6c0,0.4,0.5,0.5,0.8,0.6l0.5,0.1
		c0.9,0.3,1.7,0.8,1.7,1.9c0,0.7-0.2,1.4-0.7,1.8c-0.5,0.5-1.2,0.6-1.9,0.6c-0.9,0-1.7-0.3-2.4-0.8l0.8-1.4c0.4,0.4,1,0.7,1.6,0.7
		c0.4,0,0.9-0.2,0.9-0.7c0-0.5-0.7-0.7-1.1-0.8c-1.1-0.3-1.8-0.6-1.8-1.9c0-1.4,1-2.3,2.3-2.3c0.7,0,1.5,0.2,2.1,0.6L273.2,126.7z"
		/>
	<path class="st0" d="M278.9,131.8h-1.8v-5.3h-1.5V125h4.7v1.5h-1.5V131.8z"/>
	<path class="st0" d="M283.3,130.9c0,0.6-0.5,1.1-1.1,1.1c-0.6,0-1.1-0.5-1.1-1.1c0-0.6,0.5-1.1,1.1-1.1
		C282.9,129.8,283.3,130.3,283.3,130.9z"/>
	<path class="st0" d="M293.9,130.3v1.5h-5.5l2.8-3c0.4-0.4,0.8-1,0.8-1.7c0-0.4-0.3-0.9-0.8-0.9c-0.5,0-0.7,0.4-0.7,0.8
		c0,0.1,0,0.2,0,0.3h-1.9c0.1-1.6,1-2.6,2.6-2.6c1.4,0,2.6,0.9,2.6,2.4c0,1-0.4,1.5-1.1,2.2l-1.1,1H293.9z"/>
	<path class="st0" d="M301.4,128.4c0,1.8-0.9,3.7-2.9,3.7s-2.9-1.9-2.9-3.7c0-1.8,0.9-3.7,2.9-3.7S301.4,126.6,301.4,128.4z
		 M297.4,128.4c0,0.7,0.2,2.1,1.1,2.1s1.1-1.5,1.1-2.1c0-0.7-0.2-2.1-1.1-2.1S297.4,127.7,297.4,128.4z"/>
	<path class="st0" d="M303.4,126.5V125h2.7v6.8h-1.8v-5.3H303.4z"/>
	<path class="st0" d="M309.2,126.5V125h2.7v6.8h-1.8v-5.3H309.2z"/>
</g>
</svg>
