<svg xmlns="http://www.w3.org/2000/svg" viewBox="0 0 44.97 40.12"><defs><style>.a{fill:#fff;fill-rule:evenodd;}</style></defs><title>logo_KFR</title><path class="a" d="M29.73,30L30,29l0,0c-0.17.27-.32,0.55-0.5,0.81a1.06,1.06,0,0,1-.26.2,1,1,0,0,1-.14-0.26C29,29.41,29,29.11,29,28.78a1.53,1.53,0,0,1-.55,1l0.13-.68c0.05-.28.1-0.56,0.18-0.83a0.4,0.4,0,0,1,.22-0.25c0.14,0,.36,0,0.35.28a8.18,8.18,0,0,0,.12,1.06c0.17-.33.29-0.59,0.43-0.84a0.53,0.53,0,0,1,.23-0.25,0.71,0.71,0,0,1,.39.05,0.4,0.4,0,0,1,0,.24c-0.11.46-.23,0.92-0.34,1.39-0.07.28-.22,0-0.32,0.08L29.73,30"/><path class="a" d="M21.5,29.17l-0.2.11-0.57-.78-0.11.05,0.06,0.75c-0.21.05-.33,0-0.35-0.22s-0.07-.7-0.1-1c0,0,0-.06,0-0.08-0.07-.53.15-0.72,0.69-0.61,0.7,0.15.68,0.61,0.35,1a0.22,0.22,0,0,0,0,.17c0.08,0.21.18,0.41,0.28,0.63m-1-1.39c0.14,0.14-.12.5,0.26,0.47a0.51,0.51,0,0,0,.34-0.32c-0.09-.31-0.38-0.12-0.6-0.15"/><path class="a" d="M26.35,29.56C26,29.46,26,29.43,26.13,29.1s0.35-.81.5-1.22c0.06-.16.11-0.28,0.3-0.23a0.37,0.37,0,0,1,.36.35c0,0.46.08,0.92,0.11,1.38a0.62,0.62,0,0,1-.1.24A0.64,0.64,0,0,1,27,29.47c0-.26-0.23-0.23-0.35-0.23a0.66,0.66,0,0,0-.28.23,0.29,0.29,0,0,0,0,.09m0.57-1.29H26.87l-0.26.65H27l-0.08-.65"/><path class="a" d="M8.82,31.09c0.17-.34,0-0.84.6-0.94,0,0.21-.07.38-0.12,0.55a0.31,0.31,0,0,0,.13.38,4.56,4.56,0,0,1,.55.46,0.51,0.51,0,0,1,0,.25,0.51,0.51,0,0,1-.23,0c-0.19-.15-0.36-0.32-0.54-0.49l-0.1.06c0,0.17.08,0.34,0.14,0.51s0.13,0.31-.1.38S9,32.14,8.94,32c-0.13-.29-0.3-0.56-0.45-0.85a2.26,2.26,0,0,1-.19-0.37,0.51,0.51,0,0,1,.06-0.23,0.45,0.45,0,0,1,.22.07,3.79,3.79,0,0,1,.25.45"/><path class="a" d="M13.67,28.6a0.66,0.66,0,0,1,.69.42,1.17,1.17,0,0,1,.19,1,0.65,0.65,0,0,1-1,.25,1.2,1.2,0,0,1-.4-1.24,0.46,0.46,0,0,1,.54-0.42m0.65,1.09A3.31,3.31,0,0,0,14,29.06a0.43,0.43,0,0,0-.37-0.15,0.43,0.43,0,0,0-.25.34,1.69,1.69,0,0,0,.24.68,0.43,0.43,0,0,0,.39.13,0.89,0.89,0,0,0,.25-0.36"/><path class="a" d="M11.54,31.14a0.55,0.55,0,0,1-.61-0.39l-0.21-.48a0.58,0.58,0,0,1,.1-0.75,0.76,0.76,0,0,1,.86,0,1.43,1.43,0,0,1,.48,1.22c0,0.31-.17.45-0.62,0.42m0.36-.55a5.67,5.67,0,0,0-.37-0.77,0.39,0.39,0,0,0-.37-0.1,0.45,0.45,0,0,0-.15.39,2.43,2.43,0,0,0,.34.68,0.33,0.33,0,0,0,.31.1,0.9,0.9,0,0,0,.25-0.29"/><path class="a" d="M18.4,29.17l0.69-.08,0,0.31-0.93.09a0.14,0.14,0,0,1-.08-0.1c-0.08-.45-0.17-0.91-0.2-1.37a0.46,0.46,0,0,1,.27-0.31,3.87,3.87,0,0,1,.67-0.16l0.1,0.3-0.72.1a0.69,0.69,0,0,0,0,.1c0,0.35.05,0.4,0.4,0.33a0.79,0.79,0,0,1,.27.06,0.69,0.69,0,0,1-.25.17c-0.39,0-.27.31-0.23,0.57"/><path class="a" d="M15.56,28.21c0.71-.29,1.07-0.25,1.16.12s0.08,0.68-.64.85a4,4,0,0,1,.08.53,0.5,0.5,0,0,1-.14.2,0.44,0.44,0,0,1-.17-0.15c-0.1-.51-0.19-1-0.29-1.56M16,28.27c0,0.43.08,0.67,0.24,0.59a0.49,0.49,0,0,0,.24-0.37c0-.37-0.27-0.22-0.48-0.22"/><path class="a" d="M24.19,29.27c0-.56,0-1.11,0-1.65a0.36,0.36,0,0,1,.28-0.19,6.13,6.13,0,0,1,.76.08v0.31H24.71a0.17,0.17,0,0,0-.22.19c0,0.25.06,0.28,0.26,0.26h0.32c0,0.23-.09.35-0.34,0.29s-0.32,0-.23.23a0.72,0.72,0,0,1,0,.23c0,0.23-.1.33-0.3,0.26"/><path class="a" d="M35.39,30a0.27,0.27,0,0,1,.3.31,3.14,3.14,0,0,0,.07.5,2.62,2.62,0,0,0,.37-0.24c0.2-.19.32-0.18,0.54,0.09l-0.58.3a0.86,0.86,0,0,0-.52.66,0.56,0.56,0,0,1-.19.29,0.53,0.53,0,0,1-.24,0,0.43,0.43,0,0,1,0-.21A2.71,2.71,0,0,0,35.39,30"/><path class="a" d="M33.43,29.27c0.38,0.11.38,0.12,0.25,0.42s-0.21.58-.33,0.87c-0.06.14,0,.21,0.12,0.24a1.13,1.13,0,0,1,.33.12,0.32,0.32,0,0,1,.15.23c0,0.13-.1.21-0.26,0.13A1.57,1.57,0,0,1,33,30.92a0.17,0.17,0,0,1,0-.12c0.17-.51.35-1,0.53-1.53"/><path class="a" d="M31.62,30.56l-0.31-.14,0.5-1.7c0.3,0,.35.15,0.27,0.39-0.16.47-.3,0.94-0.46,1.45"/><path class="a" d="M15,32.82l0.12-.7c0-.09,0-0.19.14-0.18s0.1,0.13.08,0.2c-0.07.36-.15,0.71-0.21,1.07a0.16,0.16,0,0,1-.16.16,0.15,0.15,0,0,1-.16-0.16c0-.25-0.09-0.49-0.14-0.78a2.93,2.93,0,0,0-.18.74c0,0.09,0,.21-0.17.2a0.18,0.18,0,0,1-.17-0.2c-0.07-.35-0.14-0.69-0.2-1,0-.08-0.06-0.18.08-0.2s0.12,0.09.14,0.17l0.15,0.79a2.52,2.52,0,0,0,.15-0.6c0-.13,0-0.35.18-0.36s0.16,0.21.19,0.34,0.07,0.36.1,0.54H15Z"/><path class="a" d="M22,33.35c-0.39.07-.36-0.24-0.48-0.37s-0.06-.19-0.17-0.17a0.2,0.2,0,0,0-.09.23c0,0.06,0,.12,0,0.19a0.12,0.12,0,0,1-.13.14,0.11,0.11,0,0,1-.09-0.14c0-.38,0-0.76,0-1.13,0-.07,0-0.16.11-0.16s0.11,0.08.11,0.16v0.32A1.44,1.44,0,0,1,22,31.93c-0.63.51-.31,0.95,0,1.42"/><path class="a" d="M30.16,32.69a3.58,3.58,0,0,1-.08.4,0.39,0.39,0,0,1-.43.29,0.41,0.41,0,0,1-.41-0.32,1.5,1.5,0,0,1,0-.71,0.46,0.46,0,0,1,.91,0,3.09,3.09,0,0,1,0,.35m-0.23-.06c-0.06-.19.06-0.54-0.27-0.53s-0.25.33-.24,0.54-0.07.56,0.26,0.56,0.22-.33.25-0.57"/><path class="a" d="M19.75,33.38a0.44,0.44,0,0,1-.45-0.17c0-.08-0.11-0.2,0-0.27s0.15,0,.18.13a0.21,0.21,0,0,0,.27.14A0.2,0.2,0,0,0,19.9,33a0.25,0.25,0,0,0-.18-0.25,1.8,1.8,0,0,1-.31-0.14,0.37,0.37,0,0,1-.14-0.43,0.35,0.35,0,0,1,.32-0.27,0.4,0.4,0,0,1,.44.14c0,0.07.11,0.16,0,.23s-0.16,0-.19-0.09a0.18,0.18,0,0,0-.25-0.11,0.16,0.16,0,0,0-.13.17,0.22,0.22,0,0,0,.15.24l0.24,0.1a0.39,0.39,0,0,1,.24.49,0.36,0.36,0,0,1-.36.29"/><path class="a" d="M16.23,32.67c0-.17,0-0.35,0-0.53s0-.2.1-0.2,0.12,0.1.12,0.19,0,0.18,0,.26,0.11,0.12.2,0.12,0.21,0,.22-0.14,0-.2,0-0.3a0.11,0.11,0,1,1,.21,0c0,0.39,0,.78,0,1.17a0.1,0.1,0,0,1-.11.13,0.11,0.11,0,0,1-.1-0.13,2.67,2.67,0,0,1,0-.3,0.19,0.19,0,0,0-.23-0.24c-0.18,0-.19.09-0.21,0.23s0.11,0.43-.12.42-0.06-.29-0.1-0.45a1,1,0,0,1,0-.22"/><path class="a" d="M27.41,32.64a1.23,1.23,0,0,1,.07-0.48,0.45,0.45,0,0,1,.75-0.09c0,0.07.14,0.19,0,.27s-0.16,0-.2-0.12a0.19,0.19,0,0,0-.24-0.13,0.22,0.22,0,0,0-.17.22c0,0.21,0,.43,0,0.64a0.23,0.23,0,0,0,.22.26A0.21,0.21,0,0,0,28.1,33c0-.1,0-0.18.16-0.15s0.07,0.15,0,.22a0.39,0.39,0,0,1-.38.31,0.4,0.4,0,0,1-.45-0.26,1.51,1.51,0,0,1-.06-0.48"/><path class="a" d="M23.59,32a0.24,0.24,0,0,1-.3.11c-0.15,0-.24,0-0.23.21a0.18,0.18,0,0,0,.22.22h0.07c0.08,0,.21,0,0.21.09s-0.13.09-.2,0.09-0.3,0-.3.22,0.05,0.28.25,0.27a0.31,0.31,0,0,1,.33.1,1.11,1.11,0,0,1-.7.07c-0.12,0-.1-0.12-0.1-0.21a8,8,0,0,0,0-.83c0-.35.1-0.45,0.42-0.4a0.59,0.59,0,0,1,.35.06"/><path class="a" d="M24.91,32.52c0.09-.21.15-0.36,0.22-0.51a0.13,0.13,0,0,1,.19-0.06c0.09,0,0,.11,0,0.16A2.14,2.14,0,0,0,25,33.24a0.1,0.1,0,0,1-.1.13,0.11,0.11,0,0,1-.12-0.15,2.08,2.08,0,0,0-.28-1.08c0-.06-0.13-0.16,0-0.21a0.15,0.15,0,0,1,.19.12c0,0.13.1,0.26,0.18,0.46"/><path class="a" d="M18.32,32.63c0,0.19,0,.37,0,0.56s0,0.16-.1.17-0.11-.08-0.11-0.15q0-.54,0-1.09c0-.07,0-0.17.1-0.17s0.11,0.11.11,0.19,0,0.32,0,.49"/><path class="a" d="M31.07,33.22a0.23,0.23,0,1,1-.22-0.16,0.2,0.2,0,0,1,.22.16"/><path class="a" d="M23,5.33A0.36,0.36,0,0,0,23,5.25a0.18,0.18,0,0,1,.15-0.12l0.1,0A0.73,0.73,0,0,0,23.8,4.8l0.49-.12c0-.05,0-0.1,0-0.14s0-.08,0-0.12A0.39,0.39,0,0,1,24.55,4l0.26-.11a0.18,0.18,0,0,0,.11-0.11C25,3.6,25,3.43,25.09,3.25a0.47,0.47,0,0,0,0-.18c0-.2,0-0.4-0.07-0.61a0.72,0.72,0,0,1,.3-0.2c0.16,0,.31-0.12.46-0.18a0.2,0.2,0,0,0,.14-0.23,1.8,1.8,0,0,0-.07-0.21,0.55,0.55,0,0,1,.24-0.29A0.18,0.18,0,0,0,26,1.14,0.3,0.3,0,0,1,25.91.9,0.18,0.18,0,0,1,26.09.79l0.22,0,0.08,0c0.41,0.17.84,0.28,1.25,0.42a7.46,7.46,0,0,1,.85.35L29.2,2a4.47,4.47,0,0,1,.66.42,0.46,0.46,0,0,0,.14.08,0.76,0.76,0,0,1,.42.35,4.37,4.37,0,0,0,.4.52c0.11,0.13.21,0.27,0.32,0.41a1.19,1.19,0,0,1,.19.35c0.06,0.18.14,0.34,0.21,0.52a1,1,0,0,1,.05.27,1.6,1.6,0,0,0,.06.37,1.59,1.59,0,0,1,0,.2c0.08,0.45.17,0.89,0.21,1.34a1,1,0,0,1,0,.45,1.41,1.41,0,0,0-.07.55c0,0.09,0,.19,0,0.28a0.1,0.1,0,0,1-.11.11l-0.4,0a0.28,0.28,0,0,0-.24.12L30.9,8.5a0.44,0.44,0,0,1-.4.22H30a1.8,1.8,0,0,0-.34.54,0.45,0.45,0,0,1-.47.3H29a1,1,0,0,0-.11.27,0.56,0.56,0,0,1-.28.41l-0.18.1a0.24,0.24,0,0,1-.17-0.11,1.36,1.36,0,0,0-.38-0.32,1.45,1.45,0,0,1-.19-0.14,0.22,0.22,0,0,1-.07-0.27l0.11-.3a0.21,0.21,0,0,0,0-.1,0.54,0.54,0,0,1,.13-0.43,0.41,0.41,0,0,0,.09-0.28,0.19,0.19,0,0,0-.11-0.17,1.28,1.28,0,0,1-.42-0.33,0.84,0.84,0,0,1-.11-0.16,1.61,1.61,0,0,0-.42-0.55,0.43,0.43,0,0,1-.1-0.12,0.16,0.16,0,0,1,0-.19,0.46,0.46,0,0,0,.09-0.37l-0.32-.28a0.24,0.24,0,0,0-.17-0.05H25.67A0.33,0.33,0,0,1,25.36,6l-0.07-.17-0.06-.12a0.51,0.51,0,0,0-.31.09,0.44,0.44,0,0,1-.33,0,1.39,1.39,0,0,1-.43-0.17,0.29,0.29,0,0,0-.34,0l-0.12.07a0.52,0.52,0,0,1-.29-0.13,1,1,0,0,0-.33-0.19L23,5.33"/><path class="a" d="M21.32,6.45l0.3,0a0.22,0.22,0,0,0,.2-0.19,0.51,0.51,0,0,1,0-.08l0.15,0,0.18,0a0.54,0.54,0,0,1,.38.06,0.15,0.15,0,0,0,.09,0,0.28,0.28,0,0,1,.26.15C23,6.45,23,6.45,23.16,6.42l0.17,0c0.08,0,.13,0,0.15,0a1.57,1.57,0,0,1,.18.31l0,0a0.67,0.67,0,0,0,.44.16,6.39,6.39,0,0,1,.7,0,0.33,0.33,0,0,1,.19,0l0.07,0.34a1.38,1.38,0,0,1,.73.17,0.57,0.57,0,0,1,0,.31C25.9,7.83,26,7.9,26.07,8a3.4,3.4,0,0,1,.35.27l0.15,0.13a0.41,0.41,0,0,1,.16.37,1.51,1.51,0,0,0,0,.29,0.2,0.2,0,0,0,.17,0,0.08,0.08,0,0,1,.09.06,0.54,0.54,0,0,1,0,.2c-0.05.36-.14,0.7-0.21,1.06a0.25,0.25,0,0,1-.11.16l-0.07.06a0.15,0.15,0,0,0,.16,0,0.13,0.13,0,0,1,.14.11L27,10.89l0.44,0.22a0.23,0.23,0,0,1,.12.1L27.6,11.4a0.13,0.13,0,0,1,0,.18,1.15,1.15,0,0,1-.16.08,0.64,0.64,0,0,0-.17.1,3.84,3.84,0,0,1-.51.39l0,0a2.64,2.64,0,0,1,0,.27,0.89,0.89,0,0,1-.08.22,0.31,0.31,0,0,1-.28.19l-0.31,0a0.44,0.44,0,0,1-.17-0.15,0.2,0.2,0,0,0-.13.09,0.65,0.65,0,0,1-.58.15,0.68,0.68,0,0,0-.28,0,2.06,2.06,0,0,1-.48,0,0.18,0.18,0,0,1-.18-0.19c0-.07,0-0.14,0-0.22a1.24,1.24,0,0,1,0-.44,2.88,2.88,0,0,0,0-.32A0.21,0.21,0,0,0,24,11.56h0a0.33,0.33,0,0,1-.26-0.33c-0.17,0-.3-0.12-0.47-0.14A1.93,1.93,0,0,1,22.79,11a1,1,0,0,0-.25-0.07l-0.12,0a0.3,0.3,0,0,1-.22-0.43c0-.09.07-0.19,0.11-0.28a0.71,0.71,0,0,0,0-.45C22.24,9.64,22.11,9.56,22,9.5a0.44,0.44,0,0,1-.2-0.16,4,4,0,0,0-.39-0.48,1,1,0,0,1-.27-0.5A2.1,2.1,0,0,0,21,7.91a2.94,2.94,0,0,1-.16-0.53,0.54,0.54,0,0,1,0-.18A0.14,0.14,0,0,1,20.92,7,0.14,0.14,0,0,0,21,7l0.3-.5m4.2,4.62L25.59,11a0.06,0.06,0,0,0,0,0,0.07,0.07,0,0,0-.08.06l0,0m-0.87.43,0-.05,0,0,0,0,0,0"/><path class="a" d="M12.27,22.34l-0.1.06-0.47.43c-0.13.11-.26,0.21-0.4,0.3L11,23.34a4.33,4.33,0,0,1-.84.45,1.82,1.82,0,0,1-.37.08l-0.34,0a0.19,0.19,0,0,1-.18-0.12,0.75,0.75,0,0,1,0-.49,0.4,0.4,0,0,1,0-.12c0.1-.21.15-0.44,0.25-0.65s0-.14.07-0.21,0.07-.21.11-0.32a1.68,1.68,0,0,0,.11-0.3c0-.06.06-0.11,0.07-0.16A1.39,1.39,0,0,1,10.12,21a0.24,0.24,0,0,0,0-.09,2,2,0,0,1,.22-0.49,2.59,2.59,0,0,0,.14-0.33l0.19-.46,0.08-.19a1.41,1.41,0,0,1,.11-0.23A1.2,1.2,0,0,0,11,18.94a1.08,1.08,0,0,1,.09-0.2,5.45,5.45,0,0,0,.36-0.64,0.37,0.37,0,0,1,.26-0.23,0.5,0.5,0,0,0,.14-0.07,0.23,0.23,0,0,1,.22,0,0.25,0.25,0,0,0,.13,0,0.76,0.76,0,0,1,.26,0,1.36,1.36,0,0,0,.22,0,0.17,0.17,0,0,1,.15,0,0.1,0.1,0,0,1,0,0c-0.13.32-.25,0.64-0.39,1a2.61,2.61,0,0,1-.21.41,2.15,2.15,0,0,0-.22.45,3.1,3.1,0,0,1-.13.31,3,3,0,0,0-.28.72,0.51,0.51,0,0,1-.08.18,2.37,2.37,0,0,0-.26.54,2.31,2.31,0,0,1-.12.25,1.22,1.22,0,0,0,.09.29,0.19,0.19,0,0,0,.23.11l0.18,0a0.92,0.92,0,0,0,.58-0.28l0.14-.15,0-.09a0.1,0.1,0,0,1,0-.1,1.18,1.18,0,0,0,.22-0.3l0.06-.1a1,1,0,0,0,.15-0.3A1.71,1.71,0,0,1,13.19,20a2,2,0,0,0,.23-0.42,0.12,0.12,0,0,0,0-.06A2.44,2.44,0,0,1,13.52,19a1.1,1.1,0,0,1,.13-0.31,0.35,0.35,0,0,1,.19-0.17,0.12,0.12,0,0,0,.09-0.17A0.25,0.25,0,0,1,14,18.06a1.52,1.52,0,0,0,.12-0.22,0.56,0.56,0,0,1,.29-0.28,0.15,0.15,0,0,1,.15,0,0.21,0.21,0,0,0,.17,0l0.21,0h0a1.13,1.13,0,0,0,.23.05,0.39,0.39,0,0,1,.23,0,0.6,0.6,0,0,1,.11.07,0.8,0.8,0,0,0-.15.35,1.9,1.9,0,0,1-.16.36l-0.19.4c-0.07.14-.12,0.3-0.2,0.44a2.89,2.89,0,0,0-.13.31c-0.08.18-.16,0.37-0.25,0.54a6.36,6.36,0,0,0-.27.64c-0.11.27-.22,0.54-0.33,0.81s-0.13.25-.19,0.37L13.16,23c-0.11.23-.22,0.46-0.33,0.68l-0.26.56a2.11,2.11,0,0,1-.22.42c-0.06.08-.11,0.18-0.16,0.27a1.72,1.72,0,0,1-.33.4l-0.28.26a3,3,0,0,1-.4.29,5.11,5.11,0,0,1-.65.35l-0.4.17c-0.18.07-.36,0.12-0.54,0.19a2.13,2.13,0,0,1-.7.13H8.62a1.94,1.94,0,0,1-1.11-.28L7.31,26.3l-0.18-.15a0.05,0.05,0,0,1,0-.09,7.88,7.88,0,0,0,1.09,0c0.18-.06.37,0,0.55-0.11a4.85,4.85,0,0,1,.54-0.14,1.84,1.84,0,0,0,.82-0.35c0.1-.09.22-0.15,0.33-0.23a2.79,2.79,0,0,0,.63-0.58l0.1-.12a0.75,0.75,0,0,0,.2-0.34,2,2,0,0,1,.33-0.61l0.13-.2,0-.09A0.64,0.64,0,0,0,12,23a0.36,0.36,0,0,1,.07-0.18,1,1,0,0,0,.16-0.38l0-.06v-0.1l0,0h0l0,0"/><path class="a" d="M3.11,16.94L3,17.1a0.81,0.81,0,0,0-.1.17,0.37,0.37,0,0,0,0,.13h0a1.84,1.84,0,0,1,.52-0.19,0.18,0.18,0,0,1,.17,0,0.57,0.57,0,0,1,.32.45s0,0.09,0,.14a0.52,0.52,0,0,1-.07.32,3.45,3.45,0,0,1-.48.66,1.46,1.46,0,0,1-.6.39l-0.11,0a0.47,0.47,0,0,1-.51-0.13A0.28,0.28,0,0,0,2.05,19a0.9,0.9,0,0,1-.26-0.15,0.74,0.74,0,0,1-.22-0.33,1.26,1.26,0,0,1,0-.79,1.57,1.57,0,0,1,.07-0.17,0.65,0.65,0,0,0,0-.13A1.72,1.72,0,0,1,2,16.85a2,2,0,0,1,.44-0.43,0.49,0.49,0,0,0,.14-0.16,0.49,0.49,0,0,1,.12-0.15,2.57,2.57,0,0,1,.73-0.44c0.16-.06.31-0.15,0.48-0.2,0.36-.13.72-0.26,1.08-0.35a6.06,6.06,0,0,1,1.48-.19H6.61a3.39,3.39,0,0,1,1,0l0.19,0,0.19,0a0.53,0.53,0,0,1,.26.09,0.42,0.42,0,0,0,.21.05,1,1,0,0,1,.38.13,0.53,0.53,0,0,0,.28.09,0.17,0.17,0,0,1,.11,0l0.23,0.21L9.5,15.65a0.81,0.81,0,0,1,.27.24,0.36,0.36,0,0,0,.13.1,0.28,0.28,0,0,1,.13.15c0,0.07.06,0.13,0.1,0.2a3.25,3.25,0,0,1,.21.43,1.34,1.34,0,0,1,.06.49,0.75,0.75,0,0,0,0,.14,1.72,1.72,0,0,1-.14.71c0,0.08-.05.17-0.09,0.25a2.61,2.61,0,0,1-.34.54,5.62,5.62,0,0,0-.5.59,0.19,0.19,0,0,1-.06.05l-0.33.22a1.53,1.53,0,0,1-.35.19c-0.08,0-.15.09-0.23,0.12l-0.69.25-0.38.13a0.17,0.17,0,0,0-.12.19,0.85,0.85,0,0,1,0,.28,0.2,0.2,0,0,0,0,.12,0.79,0.79,0,0,1,0,.34,1.37,1.37,0,0,0,.07.61,0.59,0.59,0,0,1,0,.1c0,0.19.08,0.39,0.11,0.59a0.56,0.56,0,0,0,.09.24,1.63,1.63,0,0,0,.55.57,4.11,4.11,0,0,0,.48.28l0.17,0.1a0.16,0.16,0,0,0,.07,0A0.49,0.49,0,0,1,9,24a0.37,0.37,0,0,1-.1.08,2.06,2.06,0,0,1-.56.12,0.58,0.58,0,0,0-.18,0,1.44,1.44,0,0,1-.63,0l-0.66-.14L6.78,24A2,2,0,0,1,6,23.29a1.09,1.09,0,0,1-.14-0.47,4.16,4.16,0,0,1,0-.5c0-.28,0-0.56.07-0.84s0-.35.05-0.52a0.38,0.38,0,0,0,0-.25,0.38,0.38,0,0,1,0-.13l0.14-.07,0.36-.13a0.82,0.82,0,0,0,.18-0.09,2.1,2.1,0,0,1,.36-0.25,0.31,0.31,0,0,0,.12-0.22,0.93,0.93,0,0,0,.35-0.22,0.55,0.55,0,0,0,.13-0.17,0.41,0.41,0,0,1,.13-0.17L8,19a0.47,0.47,0,0,0,.08-0.11l0.24-.44c0-.09.08-0.18,0.12-0.27A2,2,0,0,1,8.5,18a2.18,2.18,0,0,0,.18-0.49,1.26,1.26,0,0,0,0-.5c0-.09,0-0.17,0-0.26a0.82,0.82,0,0,0-.15-0.45A1.15,1.15,0,0,0,8.22,16a0.77,0.77,0,0,1-.13-0.14,0.3,0.3,0,0,1-.25-0.12,1.54,1.54,0,0,0-.38-0.17l-0.66-.15a1.26,1.26,0,0,0-.34,0,3.39,3.39,0,0,0-.58.06,5.57,5.57,0,0,1-.61.08,2.59,2.59,0,0,0-.58.13,2.15,2.15,0,0,0-.64.28L4,16a1.77,1.77,0,0,0-.62.43l-0.27.27A0.32,0.32,0,0,0,3,16.9H3l0.08,0"/><path class="a" d="M23.22,4.29l-0.15.06a0.55,0.55,0,0,0-.27.17,0.23,0.23,0,0,1-.2.08H21.93a0.48,0.48,0,0,0-.18.26,0.19,0.19,0,0,1-.21.14L21.36,5l-0.23-.06a0.3,0.3,0,0,0-.26.06l-0.14.11-0.22.13-0.16.09a0.29,0.29,0,0,1-.2.07L20,5.11c0-.1,0-0.19,0-0.27S19.85,4.48,19.8,4.3a1.53,1.53,0,0,0-.3-0.61,0.53,0.53,0,0,0-.59-0.17,0.34,0.34,0,0,0-.24.19,0.8,0.8,0,0,1-.07.12,0.43,0.43,0,0,1-.38.21,0.3,0.3,0,0,1,0-.11,1.3,1.3,0,0,1,.23-0.4,0.33,0.33,0,0,0,.08-0.16,0.77,0.77,0,0,1,.09-0.2l0.54-.84a2,2,0,0,1,.19-0.25,1.9,1.9,0,0,0,.44-0.71A1,1,0,0,1,20,1.08,1.74,1.74,0,0,1,20.39.64,3.79,3.79,0,0,1,20.92.36c0.23-.1.46-0.18,0.69-0.25A1.67,1.67,0,0,1,21.95.05a3.58,3.58,0,0,1,.64,0,4,4,0,0,0,.56,0,2.27,2.27,0,0,1,.75.07l0.67,0.2A1.89,1.89,0,0,1,25,.5a0.47,0.47,0,0,0,.22.09,0.25,0.25,0,0,1,.21.16,1.15,1.15,0,0,1,.06.31,0.13,0.13,0,0,1-.06.09,0.41,0.41,0,0,1-.15,0H25.11a0.1,0.1,0,0,0-.11.13c0,0.07,0,.15,0,0.22a0.17,0.17,0,0,1-.09.17l-0.12.07a3.33,3.33,0,0,1-.41.15,1,1,0,0,0-.38.19,0.54,0.54,0,0,0,0,.13,1.12,1.12,0,0,1-.05.82,3.56,3.56,0,0,1-.23.44,0.17,0.17,0,0,1-.24.1H23.43a0.16,0.16,0,0,0-.2.19c0,0.13,0,.25,0,0.38a1,1,0,0,1,0,.14"/><path class="a" d="M34.11,21.16a0.31,0.31,0,0,1,0-.26c0.06-.13.12-0.27,0.19-0.39a2.81,2.81,0,0,0,.28-0.72A4.59,4.59,0,0,0,34.73,19c0-.28.09-0.55,0.1-0.83a0.92,0.92,0,0,1,0-.18l0,0s0,0,0,.06l0,0.11c0-.1,0-0.16,0-0.19a0.13,0.13,0,0,1-.07-0.17,0.4,0.4,0,0,0,0-.25l-0.06-.3c0-.11-0.07-0.22-0.09-0.32a1.62,1.62,0,0,0-.09-0.3,0.26,0.26,0,0,0,0-.09,2.47,2.47,0,0,0-.36-0.37L34,16a3,3,0,0,0-.65-0.34,5.47,5.47,0,0,0-.67-0.21l-0.1,0c-0.2,0-.4,0-0.6-0.05a2.57,2.57,0,0,0-.71.11,6.5,6.5,0,0,0-.62.21,3.84,3.84,0,0,0-.45.22c-0.14.08-.27,0.17-0.4,0.26a0.85,0.85,0,0,0-.19.15c-0.12.14-.23,0.28-0.33,0.43a0.45,0.45,0,0,0-.06.45,0.44,0.44,0,0,0,.28,0,1.47,1.47,0,0,1,.44,0,0.22,0.22,0,0,1,.11,0,0.55,0.55,0,0,1,.26.4,0.85,0.85,0,0,1,0,.38,0.74,0.74,0,0,1-.1.21,1.26,1.26,0,0,0-.11.19,0.62,0.62,0,0,1-.37.31,1.72,1.72,0,0,0-.29.13,1.18,1.18,0,0,1-.72.16,2.13,2.13,0,0,1-.53-0.17A0.21,0.21,0,0,1,28,18.62a0.37,0.37,0,0,0,0-.15,1,1,0,0,1-.07-0.67,0.77,0.77,0,0,0,0-.12,1.42,1.42,0,0,1,.21-0.56l0,0a0.69,0.69,0,0,0,.22-0.28A3,3,0,0,1,29,16.11l0.23-.19a4,4,0,0,1,.68-0.49,2.4,2.4,0,0,1,.45-0.21,7,7,0,0,1,1-.27,2.55,2.55,0,0,1,.38,0l0.7,0a3.42,3.42,0,0,1,.48,0,2.41,2.41,0,0,1,.31.09l0.12,0a2,2,0,0,1,.63.18l0.15,0.06a3.19,3.19,0,0,1,.91.48,0.44,0.44,0,0,1,.19.25,0.34,0.34,0,0,0,.07.11,2.06,2.06,0,0,1,.29.4l0,0.06a1.49,1.49,0,0,1,.34.56c0.09,0.22.18,0.45,0.26,0.67a1.19,1.19,0,0,1,.06.23c0,0.21.06,0.42,0.08,0.63a1,1,0,0,1,0,.24,5.6,5.6,0,0,1-.13.75c-0.05.18-.06,0.37-0.11,0.54a0,0,0,0,0,0,0,0.75,0.75,0,0,1-.09.44l-0.16.49a1,1,0,0,1-.21.41l0,0a5,5,0,0,1-.39.58,6.45,6.45,0,0,1-.6.72l-0.17.19a2.32,2.32,0,0,1-.42.36,1.36,1.36,0,0,1-.42.18,1.61,1.61,0,0,0-.24.09,0.11,0.11,0,0,0-.06,0,0.29,0.29,0,0,1-.21.16,2.94,2.94,0,0,1-.34.13,1.3,1.3,0,0,1-.43,0c-0.25,0-.49-0.08-0.73-0.11l-0.09,0a0.38,0.38,0,0,1-.14.06,0.32,0.32,0,0,1-.17-0.06,1.1,1.1,0,0,1-.43-0.41,0.77,0.77,0,0,0-.1-0.12,1,1,0,0,1-.09-0.13,0.08,0.08,0,0,1,0-.13l0.06,0a0.89,0.89,0,0,0,.42.18,1.53,1.53,0,0,0,.38,0l0.12,0A0.86,0.86,0,0,0,32,23.26a3.67,3.67,0,0,0,.77-0.38c0.18-.13.34-0.28,0.5-0.43A2.65,2.65,0,0,0,33.63,22a1.49,1.49,0,0,0,.21-0.36,4.84,4.84,0,0,1,.27-0.49m-1.33,2-0.27.12a0.6,0.6,0,0,0-.09.08,0.39,0.39,0,0,0,.26-0.11l0.09-.09v0h0l0,0m-3.57-6.52h0l0,0h0l0,0m0.84,0.86-0.06,0h0L30,17.52l0,0m-0.54,1h0l0,0h0a0.05,0.05,0,0,0,0,0"/><path class="a" d="M14.69,11.59l0.17-.19A0.41,0.41,0,0,1,15,11.26l0.19,0.18a0.69,0.69,0,0,0,.48.21,0.3,0.3,0,0,1,.3.24A1.4,1.4,0,0,1,16,12l0.23,0.08A1.38,1.38,0,0,1,16.68,12a0.53,0.53,0,0,1,.17.22,0.16,0.16,0,0,0,.21.1l0.52-.11,0.2,0.27a0.5,0.5,0,0,1,.3,0,0.93,0.93,0,0,0,.45,0l0.22,0.14a0.46,0.46,0,0,0,.34-0.32,4,4,0,0,1,.41-0.65,0.33,0.33,0,0,0,.07-0.07,3.19,3.19,0,0,0,.27-0.68A3.14,3.14,0,0,1,20,10.49,0.18,0.18,0,0,1,20,10.41a0.8,0.8,0,0,0,.34-0.36,1.24,1.24,0,0,1,.22-0.23l0.34,0.07a0.11,0.11,0,0,1,.07.19l0,0a0.82,0.82,0,0,0-.26.42,0.46,0.46,0,0,0,0,.21,0.49,0.49,0,0,1,0,.12,0.47,0.47,0,0,0,.23.44l0.28,0.19a0.32,0.32,0,0,0,.34,0,2.51,2.51,0,0,1,.27-0.08,0.89,0.89,0,0,0,.27-0.13,0.42,0.42,0,0,1,.11,0,1.71,1.71,0,0,1,.28.28,0.2,0.2,0,0,1,0,.22,4.15,4.15,0,0,1-.23.35,0.34,0.34,0,0,1-.14.08l-0.36.16a0.31,0.31,0,0,0-.13.12c0,0.07-.11.13-0.16,0.2l-0.13.16-0.25.38a4.41,4.41,0,0,0-.37.64,0.9,0.9,0,0,0-.09.33,0.55,0.55,0,0,1-.31.48c-0.08,0-.16.09-0.25,0.13a0.3,0.3,0,0,1-.39-0.09,0.82,0.82,0,0,0-.46-0.29,0.25,0.25,0,0,1-.13-0.06,0.6,0.6,0,0,0-.46-0.16,7.2,7.2,0,0,1-.93-0.12A0.28,0.28,0,0,1,17.53,14a0.19,0.19,0,0,0-.2,0,0.71,0.71,0,0,1-.39,0l-0.25-.05-0.18,0a2.47,2.47,0,0,0-.77-0.07,1.49,1.49,0,0,1-.42,0,0.43,0.43,0,0,0-.24,0,0.36,0.36,0,0,1-.29,0l-0.11-.06a0.48,0.48,0,0,1-.24-0.23l-0.15-.23-0.07-.12c0-.07-0.06-0.14-0.09-0.2a0.34,0.34,0,0,1,.15-0.47,0.41,0.41,0,0,0,.19-0.13,1.18,1.18,0,0,0,.18-0.21,1.13,1.13,0,0,0,0-.32s0-.09,0-0.14"/><path class="a" d="M10.15,8.86A0.91,0.91,0,0,1,10,9a1.09,1.09,0,0,0-.19.2c-0.06.07-.16,0.1-0.22,0.17a0.65,0.65,0,0,1-.28.17,1.25,1.25,0,0,1-.42.09H8.56a0.84,0.84,0,0,1-.37-0.14A0.45,0.45,0,0,1,8,9,0.29,0.29,0,0,1,8.17,8.8a0.7,0.7,0,0,1,.35-0.07l0.24,0,0.14,0c0.06,0,.05-0.07,0-0.12a0.35,0.35,0,0,0,.16-0.19A1.26,1.26,0,0,0,9.14,8.3a0.35,0.35,0,0,0,0-.13A2.65,2.65,0,0,0,9.1,7.49a0.31,0.31,0,0,1,0-.16A0.81,0.81,0,0,0,9,6.78a1.37,1.37,0,0,1-.12-0.4,0.41,0.41,0,0,1,0-.12,2.9,2.9,0,0,1,.12-0.71,0.38,0.38,0,0,1,.34-0.27,1,1,0,0,1,.65.13c0.14,0.08.29,0.13,0.42,0.22a5.49,5.49,0,0,0,.58.27,4.46,4.46,0,0,0,.52.21,1.38,1.38,0,0,0,.33,0l0.32,0a1.74,1.74,0,0,0,.34,0h0.2a3.39,3.39,0,0,1,.84.14l0.08,0,0.88,0.06a4.52,4.52,0,0,0,.52,0,2.85,2.85,0,0,0,.38,0,0.37,0.37,0,0,1,.36.12,0.61,0.61,0,0,1,.14.24,0.69,0.69,0,0,1-.22.28,1.62,1.62,0,0,0-.28.31,0.12,0.12,0,0,0,0,.19l0.11,0.09a1.64,1.64,0,0,0-.08.23,1,1,0,0,1,0,.24,1.14,1.14,0,0,1-.32,0,4,4,0,0,0-.66,0,2.36,2.36,0,0,1-.3,0c-0.36,0-.72,0-1.08,0h-0.7a1.53,1.53,0,0,0-.45.09c-0.21.07-.43,0.13-0.65,0.19H11.1a0.25,0.25,0,0,0-.2.06l-0.16.12a0.25,0.25,0,0,0-.17,0l-0.11.12-0.1,0a0.3,0.3,0,0,1-.2.17s-0.06,0,0-.07a1.25,1.25,0,0,1,.09-0.13c-0.12,0-.12,0-0.13.11l0.09,0s0,0,0,.06M9.82,8.7l0.06-.06,0,0a0.05,0.05,0,0,0-.06.05,0.1,0.1,0,0,0,0,0M9.35,8.5h0a0.09,0.09,0,0,0,0,0h0v0M9.92,8.89h0Z"/><path class="a" d="M33.22,8a0.8,0.8,0,0,0-.47,0,0.58,0.58,0,0,0-.14.07A0.1,0.1,0,0,1,32.46,8a0.27,0.27,0,0,1,0-.25c0-.07.08-0.16,0.13-0.22A0.53,0.53,0,0,0,32.66,7a0.74,0.74,0,0,0,0-.13,0.23,0.23,0,0,1,.06-0.27l0,0c0.29,0,.59-0.05.89,0a3.77,3.77,0,0,0,.81-0.06l0.14,0A1,1,0,0,0,35,6.29a1.75,1.75,0,0,1,.33-0.14l0.06,0A1,1,0,0,0,36,5.95l0.09,0a1.07,1.07,0,0,0,.45-0.25,0.74,0.74,0,0,0,.19-0.2,0.89,0.89,0,0,1,.47-0.39,0.27,0.27,0,0,1,.12,0,1.26,1.26,0,0,1,.6.15,0.43,0.43,0,0,1,.23.41,2.4,2.4,0,0,0,.1.63,0.31,0.31,0,0,0,.06.1,0.55,0.55,0,0,1,.07.07,0.32,0.32,0,0,0,.27.18l0.05,0.07a0.18,0.18,0,0,1,0,.28,1.1,1.1,0,0,0-.08.26c0,0.08-.09.15-0.12,0.23a0.17,0.17,0,0,0,0,.21,0.24,0.24,0,0,1,.07.18,0.38,0.38,0,0,0,.06.13l-0.29.29a0.43,0.43,0,0,1,0,.18,1.4,1.4,0,0,1-.06.43,0.52,0.52,0,0,0,0,.11l0,0.13c0,0.06,0,.11-0.06.17a0.69,0.69,0,0,1-.61.5,0.87,0.87,0,0,1-.52-0.09,0.59,0.59,0,0,1-.19-0.15,3.65,3.65,0,0,1-.26-0.35A0.29,0.29,0,0,0,36.45,9a1.47,1.47,0,0,1-.33-0.18,2.89,2.89,0,0,0-.67-0.23,3.54,3.54,0,0,1-.74-0.15,3.21,3.21,0,0,0-.77-0.2,2.09,2.09,0,0,1-.28-0.09,0.91,0.91,0,0,0-.4-0.1l0-.05"/><path class="a" d="M39.72,22.86s0-.05,0-0.08a0.54,0.54,0,0,0,0-.12c0-.33.1-0.64,0.09-1a1.73,1.73,0,0,1,.1-0.51c0-.11,0-0.22.08-0.33a3.24,3.24,0,0,0,.16-0.3,0.78,0.78,0,0,1,.09-0.18c0.11-.21.22-0.42,0.35-0.63a4.88,4.88,0,0,1,.33-0.42l0.17-.19a1.39,1.39,0,0,1,.21-0.21,1.22,1.22,0,0,0,.26-0.25,2.93,2.93,0,0,1,1.09-.82,3,3,0,0,1,.65-0.18l0.39-.06a0.57,0.57,0,0,1,.35.06,1,1,0,0,0,.3.1,0.48,0.48,0,0,1,.16.07,0.48,0.48,0,0,0,.06,0,0.64,0.64,0,0,1,.29.28,0.1,0.1,0,0,1,0,.06,0.79,0.79,0,0,1,0,.39,0,0,0,0,0,0,0,1.26,1.26,0,0,1,0,.55,0.59,0.59,0,0,1-.08.25c-0.09.17-.2,0.34-0.3,0.52L44.47,20a1.9,1.9,0,0,1-.51.58l-0.12.08a1.26,1.26,0,0,0-.21.15,1.64,1.64,0,0,1-.64.31,0.77,0.77,0,0,0-.4.17,0.13,0.13,0,0,1-.07,0,2.13,2.13,0,0,1-.55.06h0a0.48,0.48,0,0,1-.5-0.09l-0.17.21a0.84,0.84,0,0,0-.17.38c0,0.11,0,.22-0.06.33a1.77,1.77,0,0,0,0,.52,0.31,0.31,0,0,0,.4.27,0.32,0.32,0,0,1,.23,0,0.58,0.58,0,0,0,.3,0l0.24,0a0.27,0.27,0,0,0,.23-0.13,0.19,0.19,0,0,1,.1-0.07,3.1,3.1,0,0,0,.61-0.34l0.35-.22A1.25,1.25,0,0,0,43.81,22l0.11-.09a1.62,1.62,0,0,0,.19-0.15,1.77,1.77,0,0,1,.6-0.37,0.18,0.18,0,0,1,0,.08,0.24,0.24,0,0,0-.07.14,0.8,0.8,0,0,1-.21.46l-0.25.29L44,22.57l-0.36.32c-0.2.16-.39,0.32-0.59,0.47a2.39,2.39,0,0,1-.42.27,8.41,8.41,0,0,1-1.17.5,0.72,0.72,0,0,1-.33,0,2.94,2.94,0,0,1-.37-0.06,0.36,0.36,0,0,1-.28-0.2,0.08,0.08,0,0,0-.06,0,0.28,0.28,0,0,0-.09,0,0.21,0.21,0,0,1-.18-0.24H40a0.38,0.38,0,0,1-.13-0.17,0.19,0.19,0,0,0,.15-0.08L40,23.3H39.79l0-.08,0.07,0a0.07,0.07,0,0,0,0-.12L39.71,23a0.05,0.05,0,0,1,0-.08h0v0m1.78-1.7,0.3-.11,0.15,0a2,2,0,0,1,.38-0.13,0.45,0.45,0,0,0,.16-0.07,2.54,2.54,0,0,0,.64-0.65,3.3,3.3,0,0,0,.26-0.42c0.08-.16.17-0.32,0.25-0.48a1.5,1.5,0,0,0,.21-0.51v0a0.67,0.67,0,0,0,.07-0.37,0.3,0.3,0,0,0-.13-0.28,0.23,0.23,0,0,0-.23,0,1.2,1.2,0,0,0-.57.35l-0.09.08a3.64,3.64,0,0,0-.59.65c-0.07.11-.13,0.23-0.2,0.35a0.24,0.24,0,0,1-.06.29,0.4,0.4,0,0,0-.06.1l-0.33.7c0,0.06-.05.12-0.08,0.18a1,1,0,0,0-.12.34l0,0h0"/><path class="a" d="M14.76,23.3l0-.08a0.12,0.12,0,0,0,.1-0.14L14.68,23V22.9a0.11,0.11,0,0,0,0,0,3,3,0,0,1,0-.67c0-.18,0-0.35.05-0.53a1.4,1.4,0,0,1,.1-0.47,1.46,1.46,0,0,1,.21-0.55,5.41,5.41,0,0,1,.37-0.73,2,2,0,0,1,.32-0.46c0.14-.15.28-0.3,0.4-0.47a0.24,0.24,0,0,1,.08-0.06,1.17,1.17,0,0,0,.3-0.29,2.34,2.34,0,0,1,.51-0.47,2.52,2.52,0,0,1,.56-0.31,3.14,3.14,0,0,1,.63-0.17l0.39-.06a0.6,0.6,0,0,1,.37.06,0.9,0.9,0,0,0,.28.1,0.5,0.5,0,0,1,.16.07,0.55,0.55,0,0,0,.06,0,0.6,0.6,0,0,1,.29.28,0.27,0.27,0,0,1,0,.09l0,0.17a0.15,0.15,0,0,1,0,.08,0.42,0.42,0,0,0,0,.27,0.09,0.09,0,0,1,0,0c0,0.13,0,.26-0.07.39a0.87,0.87,0,0,1-.08.22c-0.1.17-.2,0.34-0.31,0.52l0,0.07a1.93,1.93,0,0,1-.51.58l-0.08.06a3,3,0,0,0-.27.19,1.58,1.58,0,0,1-.58.29l-0.32.1h0a0.46,0.46,0,0,1-.32.13,1.7,1.7,0,0,1-.36,0,3,3,0,0,0-.35,0l-0.23-.11a1.08,1.08,0,0,0-.34.6c0,0.09,0,.18-0.05.28s0,0.19,0,.28,0,0.13,0,.2a0.36,0.36,0,0,0,.22.33,0.25,0.25,0,0,0,.19,0,0.41,0.41,0,0,1,.25,0,1,1,0,0,0,.26,0l0.22,0a0.31,0.31,0,0,0,.29-0.14,0.2,0.2,0,0,1,.1-0.06,2.85,2.85,0,0,0,.57-0.32c0.13-.09.27-0.17,0.41-0.25l0.08-.06c0.16-.17.36-0.29,0.53-0.45a1.47,1.47,0,0,1,.54-0.31l0,0a0.29,0.29,0,0,0-.09.23,1.24,1.24,0,0,1-.2.38c-0.09.09-.17,0.2-0.26,0.3L19,22.57c-0.09.09-.2,0.16-0.29,0.25a6.49,6.49,0,0,1-.91.71,1.16,1.16,0,0,1-.25.13,2.59,2.59,0,0,0-.36.17,4.87,4.87,0,0,1-.8.31,0.5,0.5,0,0,1-.24,0,2.2,2.2,0,0,1-.41-0.07,0.47,0.47,0,0,1-.27-0.19,1.21,1.21,0,0,0-.26-0.23,0.25,0.25,0,0,0-.19,0,0.61,0.61,0,0,1-.16-0.2,0.22,0.22,0,0,0,.16,0l-0.09-.12H14.76m1.67-2.14,0.29-.11,0.63-.19,0.07,0a3.47,3.47,0,0,0,.4-0.33,3.6,3.6,0,0,0,.62-0.91,3.41,3.41,0,0,0,.38-0.85,0.72,0.72,0,0,0,.08-0.38,0.31,0.31,0,0,0-.12-0.26,0.2,0.2,0,0,0-.23,0,1.2,1.2,0,0,0-.58.34l-0.07.07a2.93,2.93,0,0,0-.81,1,0.3,0.3,0,0,1-.07.29,2.79,2.79,0,0,0-.15.28l-0.36.76a1.34,1.34,0,0,0-.1.31"/><path class="a" d="M16.58,7.59a0.46,0.46,0,0,1,0,.13,0.58,0.58,0,0,0,0,.47,0.86,0.86,0,0,0,.42,0,0.73,0.73,0,0,0,0-.11,3.25,3.25,0,0,0,0-.76,1.83,1.83,0,0,1,0-.52c0-.07,0-0.13,0-0.2a1.35,1.35,0,0,1,0-.2,0.51,0.51,0,0,1,.28-0.31L17.37,6a1.85,1.85,0,0,0,.57-0.57,0.16,0.16,0,0,1,.17-0.11,0.08,0.08,0,0,1,0,.11L18,5.75a0.66,0.66,0,0,0-.1.32c0,0.28,0,.56,0,0.84a0.65,0.65,0,0,0,.29.52,1.6,1.6,0,0,0,.44.22,0.71,0.71,0,0,0,.49,0,1.22,1.22,0,0,0,.52-0.42A2.57,2.57,0,0,0,20,6.55a0.09,0.09,0,0,1,.16,0,0.33,0.33,0,0,1,.08.2c0,0.11,0,.21,0,0.32a1,1,0,0,0,0,.17c0.07,0.19.15,0.39,0.23,0.58a0.33,0.33,0,0,1,0,.29,0.23,0.23,0,0,0,0,.29c0.11,0.12.22,0.24,0.31,0.36a2.83,2.83,0,0,1,.18.28,0.11,0.11,0,0,1,0,.13,0.17,0.17,0,0,1-.08,0h0L20.4,9H20.32a0.15,0.15,0,0,0-.17.06l-0.06.1a0.64,0.64,0,0,1-.26.3,0.08,0.08,0,0,0,0,0,1.94,1.94,0,0,0-.15.35,0.45,0.45,0,0,1-.31.31,0.18,0.18,0,0,1-.12,0L18.7,10a0.59,0.59,0,0,1-.12-0.08l-0.15-.11L18.27,10A1.77,1.77,0,0,1,18,9.83a0.52,0.52,0,0,0-.57,0l-0.06,0a0.69,0.69,0,0,1-.31-0.29,2.2,2.2,0,0,0-.46,0,0.15,0.15,0,0,1-.16-0.06,0.24,0.24,0,0,1,0-.07,0.37,0.37,0,0,0-.35-0.23,0.24,0.24,0,0,1-.22-0.1,0.28,0.28,0,0,1,0-.25,0.2,0.2,0,0,1,.07-0.09,0.32,0.32,0,0,0,.14-0.21c0-.15.09-0.31,0.12-0.46a0.45,0.45,0,0,1,.19-0.31l0.17-.15"/><path class="a" d="M33.24,17.12l-0.12.09a1,1,0,0,0-.37.41,1,1,0,0,1-.1.17,1.66,1.66,0,0,0-.22.42c-0.05.13-.12,0.25-0.18,0.38a1.17,1.17,0,0,0-.06.13c-0.11.35-.32,0.66-0.46,1a6.8,6.8,0,0,0-.27.68,2,2,0,0,1-.16.34l-0.35.69-0.27.51a0.9,0.9,0,0,1-.08.14,0.82,0.82,0,0,0-.19.37,0.23,0.23,0,0,1,0,.09c-0.1.15-.2,0.3-0.32,0.43s-0.3.34-.46,0.5a1.7,1.7,0,0,1-.21.19c-0.11.09-.24,0.17-0.35,0.27a1.53,1.53,0,0,1-.46.27,0.25,0.25,0,0,0-.07,0,1.08,1.08,0,0,1-.35.19,1.21,1.21,0,0,1-.7.09l-0.22,0A0.45,0.45,0,0,1,27,24.39a5.53,5.53,0,0,0-.55-0.32L26.29,24a0.16,0.16,0,0,1,.16-0.11h0.28A0.91,0.91,0,0,0,27,23.8a7.27,7.27,0,0,0,1.07-.54,0.72,0.72,0,0,0,.19-0.17c0.17-.22.32-0.44,0.47-0.67a3.24,3.24,0,0,0,.32-0.66c0-.1.09-0.19,0.14-0.29l0.19-.4,0.13-.22a3.58,3.58,0,0,0,.33-0.59A0.58,0.58,0,0,1,30,20.1a2.87,2.87,0,0,0,.24-0.39,10.53,10.53,0,0,1,.68-1.1A0.86,0.86,0,0,1,31,18.5a2.24,2.24,0,0,0,.33-0.35,0.31,0.31,0,0,1,.09-0.08,0.65,0.65,0,0,0,.19-0.17l0.07-.07L32,17.55l0.13-.12A2.22,2.22,0,0,1,32.86,17a0.28,0.28,0,0,1,.38.11"/><path class="a" d="M0,23.72a0.14,0.14,0,0,1,.14-0.11H0.42a1.11,1.11,0,0,0,.41-0.1l0.54-.26A3,3,0,0,0,1.82,23,0.76,0.76,0,0,0,2,22.84a6.29,6.29,0,0,0,.47-0.67,4.23,4.23,0,0,0,.33-0.66C2.9,21.24,3,21,3.17,20.71s0.18-.29.27-0.44a0.89,0.89,0,0,0,.08-0.14,1.38,1.38,0,0,1,.27-0.46l0,0L4.19,19l0.09-.16a4,4,0,0,1,.32-0.46,3.72,3.72,0,0,1,.56-0.57l0,0a1.19,1.19,0,0,1,.37-0.33c0.17-.13.32-0.28,0.5-0.4a2.17,2.17,0,0,1,.51-0.27,0.26,0.26,0,0,1,.34.09v0l-0.1.08a1,1,0,0,0-.39.42,0.83,0.83,0,0,1-.09.15,1.62,1.62,0,0,0-.23.42c-0.06.14-.13,0.28-0.2,0.41l0,0.07c-0.15.38-.33,0.74-0.52,1.1s-0.19.39-.23,0.61a1,1,0,0,1-.12.25c-0.18.36-.37,0.71-0.54,1.07a2.66,2.66,0,0,1-.31.52,0.29,0.29,0,0,0-.05.13,0.57,0.57,0,0,1-.11.23c-0.1.14-.21,0.28-0.32,0.41s-0.26.29-.39,0.43A1.38,1.38,0,0,1,3,23.4a2.85,2.85,0,0,0-.32.24,1.59,1.59,0,0,1-.48.28,0.24,0.24,0,0,0-.09,0,1.08,1.08,0,0,1-.41.21,1.1,1.1,0,0,1-.53.07l-0.38-.05a0.47,0.47,0,0,1-.18-0.07,6.57,6.57,0,0,0-.57-0.32L0,23.72"/><path class="a" d="M36,23.48a2.38,2.38,0,0,1,.13-0.55c0.1-.25.19-0.51,0.3-0.76a2.71,2.71,0,0,1,.22-0.4,2.59,2.59,0,0,0,.24-0.41c0.1-.24.22-0.47,0.32-0.71,0-.07,0-0.14.08-0.21a2.09,2.09,0,0,1,.11-0.26c0.2-.34.38-0.69,0.54-1a3.45,3.45,0,0,1,.16-0.32,1,1,0,0,0,.14-0.39,0.42,0.42,0,0,1,.23-0.33L39,17.83a0.8,0.8,0,0,1,.36-0.11,0.53,0.53,0,0,0,.15,0,0.52,0.52,0,0,1,.28,0,0.1,0.1,0,0,1,.07.16l-0.26.49a1.93,1.93,0,0,0-.09.2,3.5,3.5,0,0,1-.31.61,0.45,0.45,0,0,1-.05.08,1.82,1.82,0,0,0-.35.64,5.3,5.3,0,0,1-.31.69c-0.06.1-.1,0.22-0.15,0.33s-0.19.42-.28,0.64a1.59,1.59,0,0,0-.1.71c0,0.15.08,0.19,0.21,0.1L38.59,22,39,21.73a0.47,0.47,0,0,1,.17-0.06,0.1,0.1,0,0,1,.11.11,0.77,0.77,0,0,1-.05.17s0,0.08-.07.12a1.46,1.46,0,0,1-.36.5c-0.14.14-.26,0.28-0.4,0.42a1.9,1.9,0,0,1-.47.33l-0.05,0a2.29,2.29,0,0,1-.61.36,2.52,2.52,0,0,0-.41.2,0.61,0.61,0,0,1-.64,0A0.46,0.46,0,0,1,36,23.48"/><path class="a" d="M27.07,13.29c0-.06,0-0.11,0-0.15a0.22,0.22,0,0,1,.08-0.19,0.68,0.68,0,0,0,.19-0.25,1.84,1.84,0,0,1,.22-0.31,1,1,0,0,0,.18-0.29A0.15,0.15,0,0,1,27.9,12h0.33a0.56,0.56,0,0,0,.05-0.1,1.22,1.22,0,0,1,.37-0.5,1.42,1.42,0,0,0,.19-0.25,0.16,0.16,0,0,0,0-.09,1,1,0,0,0,0-.14A0.22,0.22,0,0,1,29,10.75c0.12,0,.23-0.1.36-0.13a0.23,0.23,0,0,0,.18-0.21,0.38,0.38,0,0,1,.08-0.23,1.66,1.66,0,0,1,.49,0,0.32,0.32,0,0,0,.08-0.24s0-.09,0-0.14a0.17,0.17,0,0,1,.07-0.15,1.28,1.28,0,0,0,.42-0.09l0.17,0a0.49,0.49,0,0,0,.33-0.24,0.38,0.38,0,0,0,.09-0.34l0.15-.16a1,1,0,0,1,.4.12,0.14,0.14,0,0,1,.08.15c0,0.13,0,.25,0,0.38a4.27,4.27,0,0,1-.25,1,2.2,2.2,0,0,0-.08.26,1.6,1.6,0,0,1-.36.7l-0.52.58c-0.06.07-.14,0.12-0.21,0.18l-0.27.26a0.68,0.68,0,0,1-.21.15l-0.49.22a2.72,2.72,0,0,1-.47.16,3.15,3.15,0,0,1-.44.06,1.8,1.8,0,0,0-.42.1l-0.21.08a2.18,2.18,0,0,1-.72.15l-0.11,0"/><path class="a" d="M22.39,21.79a0.12,0.12,0,0,1,0-.13L22.88,21l0,0a1.29,1.29,0,0,0,.37-0.51,0.49,0.49,0,0,1,.08-0.09l0.09-.13A2.47,2.47,0,0,0,23.57,20a2.05,2.05,0,0,1,.33-0.47,7,7,0,0,0,.51-0.71l0.11-.16a0.64,0.64,0,0,0,.09-0.15,0.83,0.83,0,0,1,.15-0.25A0.92,0.92,0,0,0,24.92,18,0.4,0.4,0,0,1,25,17.93a0.26,0.26,0,0,0,.09-0.15,0.06,0.06,0,0,1,0,0,1.63,1.63,0,0,0,.27-0.46A2.83,2.83,0,0,1,25.52,17a0.65,0.65,0,0,1,.1-0.12,0.13,0.13,0,0,1,.17,0,0.16,0.16,0,0,1,.08.17,0.72,0.72,0,0,1,0,.13,3.49,3.49,0,0,1-.28.55c-0.25.43-.52,0.84-0.8,1.25l-0.52.76L24,20.15c-0.11.18-.22,0.37-0.33,0.54s-0.15.2-.23,0.3l-0.46.61c-0.05.07-.09,0.15-0.14,0.22l-0.54.79c-0.11.17-.21,0.34-0.32,0.5s-0.27.36-.41,0.54a0.12,0.12,0,0,1-.12,0,0.1,0.1,0,0,1-.08-0.1,0.63,0.63,0,0,1,0-.22,0.75,0.75,0,0,1,.16-0.32,0.1,0.1,0,0,0,0,0,0.67,0.67,0,0,1,.21-0.33,0.11,0.11,0,0,0,0,0,1.13,1.13,0,0,1,.18-0.33,0.94,0.94,0,0,1,.11-0.14A0.37,0.37,0,0,0,22.21,22l0.18-.17"/><path class="a" d="M23.57,18.56c0,0.09,0,.17,0,0.26a1.06,1.06,0,0,1-.12.48l-0.09.18a0.44,0.44,0,0,1-.29.25,0.39,0.39,0,0,0-.13.05,0.46,0.46,0,0,1-.27.07,1.18,1.18,0,0,1-.7-0.27,1.84,1.84,0,0,1-.26-0.33,0.14,0.14,0,0,1,0-.08c0-.15,0-0.29,0-0.44a2.61,2.61,0,0,0,0-.32,0.46,0.46,0,0,1,.06-0.34,0.87,0.87,0,0,0,.08-0.2,0.88,0.88,0,0,1,.29-0.42,0.56,0.56,0,0,1,.37-0.12h0.24a0.83,0.83,0,0,1,.44.17,0.3,0.3,0,0,0,.06.05,0.46,0.46,0,0,1,.3.34,0.87,0.87,0,0,1,.09.43,1.52,1.52,0,0,0,0,.24h0M22.34,18a0.6,0.6,0,0,0-.12.48s0,0,0,.06a1.71,1.71,0,0,1,0,.36,0.19,0.19,0,0,0,.1.22,0.78,0.78,0,0,1,.16.12,0.33,0.33,0,0,0,.37.07,0.24,0.24,0,0,0,.2-0.26,1.14,1.14,0,0,1,0-.31,1.52,1.52,0,0,0,0-.5,0.13,0.13,0,0,0,0-.05,0.8,0.8,0,0,0-.28-0.3l-0.18,0L22.34,18"/><path class="a" d="M25.19,22.08l0.46,1-0.2.1H25.41a0.38,0.38,0,0,1-.29-0.25,2.91,2.91,0,0,0-.31-0.56,0.82,0.82,0,0,1-.08-0.19,0.73,0.73,0,0,0-.34-0.09,1.36,1.36,0,0,0,0,.44,2.33,2.33,0,0,1,0,.42,0.25,0.25,0,0,1-.23.18A0.23,0.23,0,0,1,23.94,23a1.11,1.11,0,0,1,0-.24c0-.27,0-0.54,0-0.82a3.41,3.41,0,0,0,0-.74,0.85,0.85,0,0,1,0-.34,0.29,0.29,0,0,1,.29-0.26,1,1,0,0,1,.36,0h0.1a1,1,0,0,1,.57.14,0.47,0.47,0,0,1,.27.3,1.05,1.05,0,0,1,0,.74,0.36,0.36,0,0,1-.16.17,0.29,0.29,0,0,0-.15.12m-0.77-.47a0.91,0.91,0,0,1,.37,0,1.69,1.69,0,0,0,.26-0.09,0.21,0.21,0,0,0,.09-0.17,0.45,0.45,0,0,1,0-.09A0.42,0.42,0,0,0,24.91,21a0.22,0.22,0,0,0-.17,0H24.56l-0.14,0v0.54Z"/><path class="a" d="M39.88,15.41A0.69,0.69,0,0,1,40,15.3c0.09-.06.11-0.06,0.2,0l0.13,0.12a0.58,0.58,0,0,1,.19.57,0.26,0.26,0,0,0,0,.09,0.47,0.47,0,0,1-.12.35,1.19,1.19,0,0,1-.18.19,0.51,0.51,0,0,1-.33.16l-0.22,0a0.58,0.58,0,0,1-.59-0.24A0.3,0.3,0,0,1,39,16.44a0.61,0.61,0,0,0,0-.21,0.08,0.08,0,0,1,0-.06C39,16.09,39,16,39,15.91a1.62,1.62,0,0,1,.23-0.35,0.48,0.48,0,0,1,.52-0.16l0.09,0"/><path class="a" d="M17.48,4.88a5.07,5.07,0,0,1-.61.87l-0.07,0a0.19,0.19,0,0,1-.06-0.19,0.62,0.62,0,0,0,0-.41,0.56,0.56,0,0,1,0-.21,0.16,0.16,0,0,1,.09-0.14l0.35-.19a0.23,0.23,0,0,0,.12-0.1,0.17,0.17,0,0,1,.12-0.1,1.8,1.8,0,0,1,.53-0.06,0.64,0.64,0,0,1-.12.43,0.18,0.18,0,0,1-.08.05l-0.21,0"/><path class="a" d="M28,10.45a0.39,0.39,0,0,0,.08.27c0.08,0.13.14,0.27,0.21,0.41a0.13,0.13,0,0,1,0,.13l-0.07.1a0.49,0.49,0,0,1-.1-0.06l-0.21-.22a0.58,0.58,0,0,0-.36-0.22,0.7,0.7,0,0,1-.2-0.08,0.47,0.47,0,0,1,0-.24,3,3,0,0,1,.07-0.37,0.15,0.15,0,0,1,.1-0.13l0.06,0.06,0.1,0.15a0.34,0.34,0,0,0,.23.15l0.14,0"/><path class="a" d="M18.59,12.09H18.45A0.45,0.45,0,0,1,18,11.91a0.48,0.48,0,0,1-.05-0.18l0.18-.1a0.39,0.39,0,0,1,.4,0,0.26,0.26,0,0,1,.15.31,1,1,0,0,1-.06.15"/><path class="a" d="M16.36,11.15a1.47,1.47,0,0,0-.11.18,1.3,1.3,0,0,0-.05.19H16.13a0.36,0.36,0,0,1-.28-0.36,0.47,0.47,0,0,1,.07-0.28A0.76,0.76,0,0,1,16,10.72a0.55,0.55,0,0,1,.31.42"/><path class="a" d="M15.13,10.65l0.22-.32,0.13,0.06a0.34,0.34,0,0,1,.13.45L15.52,11a0.18,0.18,0,0,1-.18,0,0.31,0.31,0,0,1-.19-0.28,0.6,0.6,0,0,0,0-.1"/><path class="a" d="M15.94,9.71a0.37,0.37,0,0,1-.11.06,0.46,0.46,0,0,0-.3.1,0.33,0.33,0,0,1-.08-0.3,0.5,0.5,0,0,1,.13-0.24,0.38,0.38,0,0,0,.05-0.08c0.06-.1.12-0.11,0.2,0a0.35,0.35,0,0,1,.1.23c0,0.09,0,.17,0,0.26"/><path class="a" d="M16.5,10.12l-0.13,0a0.65,0.65,0,0,0-.12.07,0.71,0.71,0,0,1-.1-0.42,0.59,0.59,0,0,1,.15-0.26,2.06,2.06,0,0,1,.24.11,0.16,0.16,0,0,1,.07.17,0.73,0.73,0,0,1-.11.3"/><path class="a" d="M17.2,11.93l-0.06-.18a0.32,0.32,0,0,0,.11-0.2,0.19,0.19,0,0,1,.24-0.17,0.25,0.25,0,0,1,.19.28,0.17,0.17,0,0,1-.2.17,0.2,0.2,0,0,0-.13,0l-0.15.07"/><path class="a" d="M17.18,10.37l-0.22,0a1.27,1.27,0,0,1-.07-0.19A0.39,0.39,0,0,1,17,9.8a0.1,0.1,0,0,1,.17,0L17.21,9.9a0.4,0.4,0,0,1,0,.48"/><path class="a" d="M16.89,11.69a0.55,0.55,0,0,1-.31-0.13,1.68,1.68,0,0,1,0-.17,0.21,0.21,0,0,1,.18-0.21,0.16,0.16,0,0,1,.2.1,0.48,0.48,0,0,1,0,.17,0.31,0.31,0,0,1,0,.12l0,0.13"/><path class="a" d="M17.61,10.18a0.86,0.86,0,0,1,0-.15A0.13,0.13,0,0,1,17.88,10a0.34,0.34,0,0,1,.08.43,0.16,0.16,0,0,1-.18.07,0.17,0.17,0,0,1-.16-0.13s0-.08,0-0.16"/><path class="a" d="M18.62,10.17l0.24,0.09a0.16,0.16,0,0,1,.1.21l-0.27.19-0.21-.19a0.2,0.2,0,0,1,.14-0.3"/><path class="a" d="M14.81,21.66c0,0.18,0,.35-0.05.53a3,3,0,0,0,0,.67,0.11,0.11,0,0,1,0,0,1.84,1.84,0,0,1,0-.63,0.63,0.63,0,0,0,0-.12c0-.06,0-0.12,0-0.17a0.7,0.7,0,0,0,0-.14,0.33,0.33,0,0,1,.06-0.19"/><path class="a" d="M39.83,21.7c0,0.33-.08.65-0.09,1a0.54,0.54,0,0,1,0,.12,0.81,0.81,0,0,1,0-.34,1.74,1.74,0,0,0,0-.37,1.21,1.21,0,0,1,0-.19,0.26,0.26,0,0,1,.05-0.19"/><path class="a" d="M39.79,23.3H40l0.1,0.12a0.19,0.19,0,0,1-.15.08,0.33,0.33,0,0,1-.11-0.2"/><path class="a" d="M39.71,23l0.13,0.09a0.07,0.07,0,0,1,0,.12l-0.07,0A0.35,0.35,0,0,1,39.71,23"/><path class="a" d="M14.68,23l0.16,0.1a0.12,0.12,0,0,1-.1.14A0.36,0.36,0,0,1,14.68,23"/><path class="a" d="M14.76,23.3h0.16L15,23.43a0.22,0.22,0,0,1-.16,0l-0.09-.17"/><path class="a" d="M3.11,16.94L3,16.91a0.27,0.27,0,0,1,.18-0.09,0.15,0.15,0,0,1-.1.11"/><path class="a" d="M15.27,23.88a0.14,0.14,0,0,1-.12-0.13c0.11,0,.12,0,0.12.13"/><path class="a" d="M33.25,8.05H33.18l0,0,0,0h0l0,0.05"/><path class="a" d="M39.72,22.86v0h0a0,0,0,0,1,0,0"/><polygon class="a" points="2.98 16.89 2.98 16.9 2.98 16.89 2.98 16.89"/><path class="a" d="M25.52,11.07l0,0A0.07,0.07,0,0,1,25.56,11a0.06,0.06,0,0,1,0,0l-0.07.05"/><path class="a" d="M29.22,16.63l0,0h0l0,0h0"/><path class="a" d="M9.82,8.7a0.1,0.1,0,0,1,0,0,0.05,0.05,0,0,1,.06-0.05l0,0L9.82,8.7"/><polygon class="a" points="9.92 8.89 9.91 8.89 9.91 8.88 9.92 8.89"/><path class="a" d="M40,23.3h0Z"/><path class="a" d="M14.92,23.3h0Z"/><path class="a" d="M27.15,38.68a1.85,1.85,0,0,1-.25,1.18,0.51,0.51,0,0,1-.44-0.15c0.26-1,.21-2.11.46-3.15a0.74,0.74,0,0,1,.44-0.76,0.68,0.68,0,0,1,.58.65,13.44,13.44,0,0,0,1.14,2.36c0.09,0.16.18,0.34,0,.48a0.26,0.26,0,0,1-.4-0.16,1,1,0,0,0-1.52-.44M27.21,38a1,1,0,0,0,.72-0.13,3.56,3.56,0,0,0-.52-1.3L27.21,38"/><path class="a" d="M16.22,36.43l-0.16,1a2.09,2.09,0,0,0,1.4.26,0.65,0.65,0,0,1-.17.51L16,38c-0.05.13-.1,0.22-0.13,0.32-0.22.62-.13,0.76,0.51,0.86l0.93,0.17a0.55,0.55,0,0,1,.14.08c-0.08.38-.39,0.32-0.62,0.3a12.42,12.42,0,0,0-1.3-.15,0.27,0.27,0,0,1-.3-0.28,1.79,1.79,0,0,1,0-.45c0.14-.76.27-1.51,0.43-2.26,0.12-.56.33-0.81,1-0.58a2,2,0,0,0,.85.16,0.25,0.25,0,0,1,.31.29c0,0.22-.2.2-0.39,0.16-0.37-.08-0.75-0.12-1.17-0.18"/><path class="a" d="M33.5,34.61a0.39,0.39,0,0,1-.24.32,0.62,0.62,0,0,0-.89,0,0.53,0.53,0,0,0-.15.73,0.47,0.47,0,0,0,.63.26,1.14,1.14,0,0,1,1,0,1,1,0,0,1,.49,1,1.4,1.4,0,0,1-2.11.78c0.06-.25.1-0.47,0.48-0.33a1.29,1.29,0,0,0,.73,0,0.49,0.49,0,0,0,.38-0.69,0.44,0.44,0,0,0-.63-0.33l-0.36.09a0.91,0.91,0,0,1-1.14-.57A1,1,0,0,1,32,34.65c0.67-.48,1-0.49,1.46,0"/><path class="a" d="M21.95,38.77c-0.33.48-.38,1.12-1.06,1.26a0.4,0.4,0,0,1,0-.43,7.61,7.61,0,0,0,.73-1.29,0.37,0.37,0,0,0,0-.43l-0.67-1.22,0.24-.35c0.48,0.26.42,0.86,0.8,1.18a6.92,6.92,0,0,0,.46-0.81,2,2,0,0,1,.21-0.31,0.21,0.21,0,0,1,.3,0,0.22,0.22,0,0,1,0,.32,6.35,6.35,0,0,0-.62,1.17,0.73,0.73,0,0,0,.06.66A4.73,4.73,0,0,1,23,39.74a0.31,0.31,0,0,1-.24.38,9.73,9.73,0,0,1-.77-1.35"/><path class="a" d="M10.42,38.29l0.92-2.9a2.34,2.34,0,0,0-.72-0.32,0.23,0.23,0,0,1-.21-0.3,0.25,0.25,0,0,1,.28-0.24,0.89,0.89,0,0,1,.56.1,2.57,2.57,0,0,0,1.4.4,0.48,0.48,0,0,1,.44.22c-0.07.32-.32,0.29-0.57,0.28-0.63,0-.61,0-0.81.58a17.44,17.44,0,0,0-.71,2c0,0.17-.21.29-0.57,0.19"/></svg>