<svg xmlns="http://www.w3.org/2000/svg" viewBox="0 0 597.09 569.73"><defs><style>.a{fill:#faf7ed;}</style></defs><title>stateOfTexas</title><path class="a" d="M386.1,752.51c16.49-.65,33,1.84,49.41,2.75s33.15,1.58,49.73,2.32c7.07,0.31,14.18.37,21.23,1,3.05,0.26,9.62,2.27,12.22,0,3-2.59,1.32-10.19,1.28-13.56-0.07-6.78.26-13.56,0.52-20.34q3.9-103.08,7.93-206.15c12,2.46,24.43,1.26,36.6,1.3,13.79,0,27.59.77,41.37,1.13,13.07,0.35,26.08-.61,39.14-0.42,3.76,0.05,12-.92,14.46,2.86,1.8,2.8.15,11.26,0.13,14.21-0.18,26.74-2.49,54.33-1.23,81,0.29,6.2,1.4,4.21,4.51,7.27,2.05,2,5.88,7.61,8.75,8.56s5.63-.95,8.35-0.86c1.52,0,2.49,2,4.17,1.85s0.4-3.48,1.54-3.87c6.3-2.18,7.48,10.57,10.28,12.34,2.39,1.51,5.77,0,8.48.67,2,0.5,3.57,2,5.52,2.59,3.9,1.18,7.81-.63,11.28.55,1.85,0.62,2.37,3.72,4.45,3.87s2.29-2,3.83-2.28c2.67-.5,7.68-2.68,10.63-1.34,4.35,2,.4,4.12,4.33,7.44,2,1.73,3.48-2,5.43.48-0.44-.58-0.72,4.29-0.75,4.49-0.14,1.17,1,3,5.25,1.69,3.07-.93,5.42-6.55,8.3-6.3,2.36,0.2,1.86,2.94,3.37,4.1,0.92,0.7,3-.58,3.9.22,3.46,2.91.53,5.1,6.18,3.36,1.39-.43,5.36-4.1,6.54-3.63,3.43,1.36-1.76,11.21,3.93,10.19,1-.18,2.42-5.75,2.87-6.67-0.2.42,2.1-1,2.42-1.42,0.78-1.1-1-4.18.94-4.82,0,2,6,4.35,6.9,4.77,3.77,1.86,5.64,2.6,6.78-2.85a6.33,6.33,0,0,0,3.84,1c0.28,3.58-1,1.43,2.26,4.52,1.18,1.11,7.65,5.81,9.06,5.74,0.33,0,1.66-2.67,2.81-3.11,1.55-.59,6.89.35,4.11-3.07,2.84,0,6.69-3,9.93-3.09a35,35,0,0,0,8.62-1c4.57-1.29,6.23-1.74,9.54-1.32,2.11,0.27,6.35,2.64,9.76,1.07,5.36-2.48,2-4.68,8.47-3.05,4.07,1,6.51,3.89,9,5.87,4.7,3.77,16.62,9.93,22,8.17-1.69.19,2,6.13,3.08,2.92,0.06,0.12.44,2.89,1.06,2.47,1.14-.77,1.59-2.24,3.5-2.47-1.45,2.27,1.72-.58,2.16-0.24a1.43,1.43,0,0,0,.16,1.86q0.73-1.62,1.76-.42-2.66-1.26.58-1.76a2.54,2.54,0,0,1,2.3,2c0.13-.83,2.85-2.38,3.12-0.72,2.31,1.07,1.76,22.67,1.88,26.44,0.52,16.55-1.39,35.52,1.91,51.7,1.3,6.35,4.9,8.51,8.19,13.7,3.07,4.85,2.38,10.07,4.23,14.55,1.3,3.15,4.74,7.2,6.29,10.92,0.44,1.06,2,5.85,3.06,7.11,2.79,3.27,4.88.83,4.35,7.84-0.16,2.11-1.09,3.46-1.31,5.63-0.41,4,0,7.08-1.52,11.3-0.92,2.53-2,5-3.07,7.43a9.28,9.28,0,0,0-2.64,3.72,14.75,14.75,0,0,0,1.38,3.15c-0.27,2.46-1.58,4.41-1.79,6.86a10,10,0,0,0,2.2,3.49,20.68,20.68,0,0,0,.55,6.64c0.25,5.94-1.57,6.77-4.57,12.55-0.6,1.17-3.72,5.16-3.74,5.88-0.06,1.78,3.52,5.64,3.16,6.52-0.63,1.51-14.08,3.11-16.66,4.28s-26,14.62-26.06,14.47c-2.72-4,10.88-7.56,12.89-8.64-1.85-6.92-12.48,4.12-13.68-.72,4.12,0.48,6-9,3.47-11.37-3.1-2.93-4,.29-6.47,1.86-1.23.78-1.87,2.61-3.19,3.48-0.74.48-1.06-2.51-2.55-1.08-5.17,5,3,10.36,4.42,14.68,0.48,1.49-.87,5.76,1.17,6.48,2.26,0.8,2.86-4.41,6.75-2.76-4.19.35-11.91,8.9-15.26,11.59-7.28,5.85-13.2,12.42-21.35,17.18-7.41,4.33-14.62,9.15-22.34,12.92-5.69,2.77-14.18,4.85-17.13,11.12-1.89-4.88,19.53-11.93,17.92-14.39-1.32-2-5.71,2.13-6.79,2.31-4.88.79-1.48,0.27-3.8-1.17s2-2.72-1.56-3.23c-2.88-.41-8.63,5.41-11.06,6.63,1.6-2.88-10.34-13.32-6.68-3.36,2.11,5.74,13.64,5.36,8,11.87-1.83,2.11-7.54,4.16-10.28,3.46-1.82-.46-2-3.75-3.8-3.12-2.69,1-1.13,7.59-2,9.75a11.44,11.44,0,0,1-4.11,4.5c-1.27.7-4,.42-4.62,1-3.6,3.09-3.47,14.53-10,15.53-2.28.35-3.53-4.32-6.83-.88-4.06,4.23,1.81,5.5,2.91,7.84,2.44,5.18-8.62,26.64-11.51,22.34,1.84,0,3.8-3,1.27-3.45-1.67-.3-5,3.37-4.63,4.71,0.9,3.63,6.45-.49,9.36.18-0.27,3.13-1.79,6.61-2.26,9.06-0.15.77,0.19,4-.39,5.11-7.47-3.83,1.06,15.09,1.37,15.85,1.75,4.31.29,8,1,12.18,0.44,2.43,1.77,4.29,2.39,7.25a3.11,3.11,0,0,1,2.52-1.32c-1.11-.72,1.42,7.62,1.46,7.77,0.38,1.31-.23,4,0.44,5,1.31,2,3.91.87,5.34,2.8,0.51,0.68-4,3.11-.21,3.85,1.6,0.31.77-4.15,2.21-3.95-1.07,3.07,1.12,3.66-1.18,5.61-0.84.72-6.67,2.37-8.23,3.24-3.77,2.1-2.17,3.17-7.05.42-4.63-2.61-7.72-6.42-13.1-7.85-3.1-.83-30.32-0.26-27.32-6.21-1.81,1-12.23-3.21-14.8-4.34-5.88-2.58-8.65-6.48-15.57-7.7-6.31-1.11-5.72-1.07-8-6.72-1.72-4.21-3.38-9.82-5.66-14.14-1.94-3.67-6.21-8.08-7.44-11.09-1.61-3.92.46-7.9-.85-11.52-1.26-3.47-3.09-2.77-3.89-7-0.2-1.06,1.46-9.51-.89-8.3C680,995,675,995.76,670.88,993c-7.41-4.9-9.08-12.94-14.13-19.67-5.75-7.66-14-11.64-16.91-21.31-1.26-4.16-2.27-8-4.43-11.88s-4.23-8.11-6.29-12.22c-3-6-4.46-12.89-8.7-18.14-5-6.19-12.32-10.65-18.36-15.62-0.55-.45-2.27-0.7-2.62-1.14s-0.2-2.22-.63-2.67a9.33,9.33,0,0,0-3-1.32c-0.8-1.15-.89-2.5-2-3.93-1.59-2.13-2.55-4.65-5.18-5.7-4.52-1.8-12.4-1-17.4-1.58-3.52-.38-7.34,0-10.77-0.73-2.84-.63-7.16-4.45-10.17-3.54-2.42.73-2.14,3-3.71,3.83-1.9,1-4.46.53-7.09,0.86-10.59,1.34-14.06,16.74-17.5,25.17-0.53,1.3-.26,3.11-0.67,3.81-0.72,1.24-2,.46-3.41,1.55-5.52,4.16-5.86,12.63-14.9,9.87-5.73-1.75-10.74-8-16.2-10.7-7.75-3.91-16.71-6.88-23.16-12.8-12.07-11.08-22-19.58-23.53-37.28-0.71-8.3-5.06-12.47-7.1-19.83-2.13-7.65-4.42-11.76-10.81-16.2-6.85-4.77-13.21-8.43-18.85-14.79-5.31-6-10.4-12.61-16.28-18.07-3.28-3-7.61-4.64-10.69-7.86-3.41-3.58-4-8-6.7-11.93-3.15-4.6-7.08-4.37-10.24-8.64-3-4-4.07-7.71,1.28-9.73,3.34-1.26,9.76.53,13.44,0.74,4,0.23,10-.66,13.74.72q-1.75-.06-3.51,0c0.79,0.17,2.41-.15,3.12,0a7.34,7.34,0,0,0-3.23-.1,3.16,3.16,0,0,0,1.71.28C400.91,751.93,380.2,751.92,386.1,752.51Zm394.8,260.2a64.37,64.37,0,0,1,6.69-18.93c1.3-2.33,7.17-7.7,4.11-10.36,4-.73,6-5,7.74-8.18,0.77-1.38,1.17-3.39,2.17-4.61a19.41,19.41,0,0,1,1.57-2.92q0.63-2,2,.31c2-.5,7.95-6.59,10.22-8.18,2-1.4,7.37-6.16,9.95-5.88-1-.11-13.11,10.09-14.58,11.31-10.15,8.43-17.78,19.5-23.17,31.46-5.68,12.62-8.48,26.15-5.64,39.87,2.75,13.26,6.43,27.41,10.19,40.43-2.2-.78-2-9.14-2.28-10.83-1.09-6.06-3.82-11.26-5.94-17a77.33,77.33,0,0,1-4.31-18.43,56.17,56.17,0,0,1-.32-10c0.1-1.4,2.82-12,1.42-6.57a11.15,11.15,0,0,1,.35-2.42,14.13,14.13,0,0,0-.29,2.13q-0.33.78,0.09-1.19C782.18,1006,780.35,1017.19,780.9,1012.71Z" transform="translate(-357.07 -518.48)"/></svg>