<?xml version="1.0" encoding="utf-8"?>
<!-- Generator: Adobe Illustrator 19.2.1, SVG Export Plug-In . SVG Version: 6.00 Build 0)  -->
<svg version="1.1" id="Layer_1" xmlns="http://www.w3.org/2000/svg" xmlns:xlink="http://www.w3.org/1999/xlink" x="0px" y="0px"
	 viewBox="0 0 597.1 569.7" style="enable-background:new 0 0 597.1 569.7;" xml:space="preserve">
<style type="text/css">
	.st0{fill:#2D2D30;}
</style>
<title>stateOfTexas</title>
<path class="st0" d="M29,234c16.5-0.7,33,1.8,49.4,2.8s33.1,1.6,49.7,2.3c7.1,0.3,14.2,0.4,21.2,1c3,0.3,9.6,2.3,12.2,0
	c3-2.6,1.3-10.2,1.3-13.6c-0.1-6.8,0.3-13.6,0.5-20.3c2.6-68.7,5.2-137.4,7.9-206.1c12,2.5,24.4,1.3,36.6,1.3
	c13.8,0,27.6,0.8,41.4,1.1c13.1,0.3,26.1-0.6,39.1-0.4c3.8,0,12-0.9,14.5,2.9c1.8,2.8,0.2,11.3,0.1,14.2c-0.2,26.7-2.5,54.3-1.2,81
	c0.3,6.2,1.4,4.2,4.5,7.3c2,2,5.9,7.6,8.8,8.6s5.6-1,8.3-0.9c1.5,0,2.5,2,4.2,1.8s0.4-3.5,1.5-3.9c6.3-2.2,7.5,10.6,10.3,12.3
	c2.4,1.5,5.8,0,8.5,0.7c2,0.5,3.6,2,5.5,2.6c3.9,1.2,7.8-0.6,11.3,0.5c1.8,0.6,2.4,3.7,4.5,3.9s2.3-2,3.8-2.3
	c2.7-0.5,7.7-2.7,10.6-1.3c4.3,2,0.4,4.1,4.3,7.4c2,1.7,3.5-2,5.4,0.5c-0.4-0.6-0.7,4.3-0.8,4.5c-0.1,1.2,1,3,5.2,1.7
	c3.1-0.9,5.4-6.5,8.3-6.3c2.4,0.2,1.9,2.9,3.4,4.1c0.9,0.7,3-0.6,3.9,0.2c3.5,2.9,0.5,5.1,6.2,3.4c1.4-0.4,5.4-4.1,6.5-3.6
	c3.4,1.4-1.8,11.2,3.9,10.2c1-0.2,2.4-5.8,2.9-6.7c-0.2,0.4,2.1-1,2.4-1.4c0.8-1.1-1-4.2,0.9-4.8c0,2,6,4.3,6.9,4.8
	c3.8,1.9,5.6,2.6,6.8-2.8c1.1,0.7,2.5,1.1,3.8,1c0.3,3.6-1,1.4,2.3,4.5c1.2,1.1,7.7,5.8,9.1,5.7c0.3,0,1.7-2.7,2.8-3.1
	c1.5-0.6,6.9,0.3,4.1-3.1c2.8,0,6.7-3,9.9-3.1c2.9,0,5.8-0.3,8.6-1c4.6-1.3,6.2-1.7,9.5-1.3c2.1,0.3,6.3,2.6,9.8,1.1
	c5.4-2.5,2-4.7,8.5-3c4.1,1,6.5,3.9,9,5.9c4.7,3.8,16.6,9.9,22,8.2c-1.7,0.2,2,6.1,3.1,2.9c0.1,0.1,0.4,2.9,1.1,2.5
	c1.1-0.8,1.6-2.2,3.5-2.5c-1.5,2.3,1.7-0.6,2.2-0.2c-0.4,0.6-0.3,1.4,0.2,1.9c0.5-1.1,1.1-1.2,1.8-0.4c-1.8-0.8-1.6-1.4,0.6-1.8
	c1.1,0.1,2.1,0.9,2.3,2c0.1-0.8,2.8-2.4,3.1-0.7c2.3,1.1,1.8,22.7,1.9,26.4c0.5,16.5-1.4,35.5,1.9,51.7c1.3,6.3,4.9,8.5,8.2,13.7
	c3.1,4.8,2.4,10.1,4.2,14.5c1.3,3.2,4.7,7.2,6.3,10.9c0.4,1.1,2,5.8,3.1,7.1c2.8,3.3,4.9,0.8,4.3,7.8c-0.2,2.1-1.1,3.5-1.3,5.6
	c-0.4,4,0,7.1-1.5,11.3c-0.9,2.5-2,5-3.1,7.4c-1.2,1-2.1,2.3-2.6,3.7c0.3,1.1,0.8,2.2,1.4,3.2c-0.3,2.5-1.6,4.4-1.8,6.9
	c0.5,1.3,1.2,2.5,2.2,3.5c-0.2,2.2,0,4.5,0.5,6.6c0.2,5.9-1.6,6.8-4.6,12.5c-0.6,1.2-3.7,5.2-3.7,5.9c-0.1,1.8,3.5,5.6,3.2,6.5
	c-0.6,1.5-14.1,3.1-16.7,4.3s-26,14.6-26.1,14.5c-2.7-4,10.9-7.6,12.9-8.6c-1.8-6.9-12.5,4.1-13.7-0.7c4.1,0.5,6-9,3.5-11.4
	c-3.1-2.9-4,0.3-6.5,1.9c-1.2,0.8-1.9,2.6-3.2,3.5c-0.7,0.5-1.1-2.5-2.5-1.1c-5.2,5,3,10.4,4.4,14.7c0.5,1.5-0.9,5.8,1.2,6.5
	c2.3,0.8,2.9-4.4,6.8-2.8c-4.2,0.3-11.9,8.9-15.3,11.6c-7.3,5.8-13.2,12.4-21.3,17.2c-7.4,4.3-14.6,9.2-22.3,12.9
	c-5.7,2.8-14.2,4.8-17.1,11.1c-1.9-4.9,19.5-11.9,17.9-14.4c-1.3-2-5.7,2.1-6.8,2.3c-4.9,0.8-1.5,0.3-3.8-1.2s2-2.7-1.6-3.2
	c-2.9-0.4-8.6,5.4-11.1,6.6c1.6-2.9-10.3-13.3-6.7-3.4c2.1,5.7,13.6,5.4,8,11.9c-1.8,2.1-7.5,4.2-10.3,3.5c-1.8-0.5-2-3.8-3.8-3.1
	c-2.7,1-1.1,7.6-2,9.8c-0.9,1.8-2.4,3.4-4.1,4.5c-1.3,0.7-4,0.4-4.6,1c-3.6,3.1-3.5,14.5-10,15.5c-2.3,0.3-3.5-4.3-6.8-0.9
	c-4.1,4.2,1.8,5.5,2.9,7.8c2.4,5.2-8.6,26.6-11.5,22.3c1.8,0,3.8-3,1.3-3.5c-1.7-0.3-5,3.4-4.6,4.7c0.9,3.6,6.5-0.5,9.4,0.2
	c-0.3,3.1-1.8,6.6-2.3,9.1c-0.2,0.8,0.2,4-0.4,5.1c-7.5-3.8,1.1,15.1,1.4,15.8c1.8,4.3,0.3,8,1,12.2c0.4,2.4,1.8,4.3,2.4,7.2
	c0.6-0.8,1.5-1.3,2.5-1.3c-1.1-0.7,1.4,7.6,1.5,7.8c0.4,1.3-0.2,4,0.4,5c1.3,2,3.9,0.9,5.3,2.8c0.5,0.7-4,3.1-0.2,3.8
	c1.6,0.3,0.8-4.2,2.2-3.9c-1.1,3.1,1.1,3.7-1.2,5.6c-0.8,0.7-6.7,2.4-8.2,3.2c-3.8,2.1-2.2,3.2-7,0.4c-4.6-2.6-7.7-6.4-13.1-7.8
	c-3.1-0.8-30.3-0.3-27.3-6.2c-1.8,1-12.2-3.2-14.8-4.3c-5.9-2.6-8.7-6.5-15.6-7.7c-6.3-1.1-5.7-1.1-8-6.7c-1.7-4.2-3.4-9.8-5.7-14.1
	c-1.9-3.7-6.2-8.1-7.4-11.1c-1.6-3.9,0.5-7.9-0.8-11.5c-1.3-3.5-3.1-2.8-3.9-7c-0.2-1.1,1.5-9.5-0.9-8.3c1.6-6.8-3.4-6.1-7.6-8.8
	c-7.4-4.9-9.1-12.9-14.1-19.7c-5.8-7.7-14-11.6-16.9-21.3c-1.3-4.2-2.3-8-4.4-11.9s-4.2-8.1-6.3-12.2c-3-6-4.5-12.9-8.7-18.1
	c-5-6.2-12.3-10.7-18.4-15.6c-0.5-0.5-2.3-0.7-2.6-1.1s-0.2-2.2-0.6-2.7c-0.9-0.6-1.9-1.1-3-1.3c-0.8-1.2-0.9-2.5-2-3.9
	c-1.6-2.1-2.5-4.7-5.2-5.7c-4.5-1.8-12.4-1-17.4-1.6c-3.5-0.4-7.3,0-10.8-0.7c-2.8-0.6-7.2-4.5-10.2-3.5c-2.4,0.7-2.1,3-3.7,3.8
	c-1.9,1-4.5,0.5-7.1,0.9c-10.6,1.3-14.1,16.7-17.5,25.2c-0.5,1.3-0.3,3.1-0.7,3.8c-0.7,1.2-2,0.5-3.4,1.5
	c-5.5,4.2-5.9,12.6-14.9,9.9c-5.7-1.8-10.7-8-16.2-10.7c-7.8-3.9-16.7-6.9-23.2-12.8c-12.1-11.1-22-19.6-23.5-37.3
	c-0.7-8.3-5.1-12.5-7.1-19.8c-2.1-7.7-4.4-11.8-10.8-16.2c-6.9-4.8-13.2-8.4-18.9-14.8c-5.3-6-10.4-12.6-16.3-18.1
	c-3.3-3-7.6-4.6-10.7-7.9c-3.4-3.6-4-8-6.7-11.9c-3.1-4.6-7.1-4.4-10.2-8.6c-3-4-4.1-7.7,1.3-9.7c3.3-1.3,9.8,0.5,13.4,0.7
	c4,0.2,10-0.7,13.7,0.7c-1.2,0-2.3,0-3.5,0c0.8,0.2,2.4-0.2,3.1,0c-1.1-0.3-2.2-0.3-3.2-0.1c0.5,0.3,1.1,0.3,1.7,0.3
	C43.8,233.5,23.1,233.4,29,234z M423.8,494.2c1.2-6.6,3.5-13,6.7-18.9c1.3-2.3,7.2-7.7,4.1-10.4c4-0.7,6-5,7.7-8.2
	c0.8-1.4,1.2-3.4,2.2-4.6c0.4-1,1-2,1.6-2.9c0.4-1.3,1.1-1.2,2,0.3c2-0.5,8-6.6,10.2-8.2c2-1.4,7.4-6.2,10-5.9
	c-1-0.1-13.1,10.1-14.6,11.3c-10.2,8.4-17.8,19.5-23.2,31.5c-5.7,12.6-8.5,26.2-5.6,39.9c2.8,13.3,6.4,27.4,10.2,40.4
	c-2.2-0.8-2-9.1-2.3-10.8c-1.1-6.1-3.8-11.3-5.9-17c-2.2-5.9-3.6-12.1-4.3-18.4c-0.4-3.3-0.5-6.7-0.3-10c0.1-1.4,2.8-12,1.4-6.6
	c0-0.8,0.1-1.6,0.3-2.4c-0.2,0.7-0.2,1.4-0.3,2.1C423.5,496,423.5,495.6,423.8,494.2C425.1,487.5,423.3,498.7,423.8,494.2z"/>
</svg>
